<svg width="47" height="48" viewBox="0 0 47 48" fill="none" xmlns="http://www.w3.org/2000/svg">
<path d="M44.8743 2.81053H35.6247V1.41493C35.6247 0.633655 34.9925 0 34.213 0C33.4336 0 32.8014 0.633655 32.8014 1.41493V2.81053H24.5545V1.41493C24.5545 0.633655 23.9223 0 23.1429 0C22.3634 0 21.7312 0.633655 21.7312 1.41493V2.81053H13.8348V1.41493C13.8348 0.633655 13.2027 0 12.4232 0C11.6438 0 11.0116 0.633655 11.0116 1.41493V2.81053H1.41162C0.632172 2.81053 0 3.44419 0 4.22547V36.1964C0 36.9777 0.632172 37.6113 1.41162 37.6113H10.0757C11.464 43.5573 16.7938 48 23.1429 48C29.4919 48 34.8217 43.5571 36.21 37.6113H44.8741C45.6535 37.6113 46.2857 36.9777 46.2857 36.1964V4.22547C46.2859 3.44419 45.654 2.81053 44.8743 2.81053ZM11.0116 5.6404V6.91903C11.0116 7.70031 11.6438 8.33396 12.4232 8.33396C13.2027 8.33396 13.8348 7.70031 13.8348 6.91903V5.6404H21.7312V6.91903C21.7312 7.70031 22.3634 8.33396 23.1429 8.33396C23.9223 8.33396 24.5545 7.70031 24.5545 6.91903V5.6404H32.8014V6.91903C32.8014 7.70031 33.4336 8.33396 34.213 8.33396C34.9925 8.33396 35.6247 7.70031 35.6247 6.91903V5.6404H43.4627V11.4265H2.82325V5.6404H11.0116ZM23.1429 45.1701C17.2983 45.1701 12.5432 40.4039 12.5432 34.5456C12.5432 28.6873 17.2983 23.9211 23.1429 23.9211C28.9874 23.9211 33.7425 28.6871 33.7425 34.5456C33.7425 40.4042 28.9877 45.1701 23.1429 45.1701ZM36.5599 34.7814C36.5613 34.7027 36.5657 34.6246 36.5657 34.5456C36.5657 27.1269 30.5442 21.0912 23.1429 21.0912C15.7415 21.0912 9.71997 27.1269 9.71997 34.5456C9.71997 34.6246 9.72467 34.7027 9.72585 34.7814H2.82301V14.2566H43.4625V34.7814H36.5599Z" fill="#5E77FF"/>
<path d="M24.5544 34.9027V28.0577C24.5544 27.2764 23.9222 26.6428 23.1428 26.6428C22.3633 26.6428 21.7311 27.2764 21.7311 28.0577V35.489C21.7311 35.8642 21.8798 36.224 22.1445 36.4896L25.3889 39.7418C25.6646 40.0179 26.0258 40.1561 26.3871 40.1561C26.7483 40.1561 27.1097 40.0179 27.3854 39.7418C27.9366 39.1893 27.9366 38.2934 27.3854 37.7408L24.5544 34.9027Z" fill="#5E77FF"/>
</svg>
