<svg width="54" height="56" viewBox="0 0 54 56" fill="none" xmlns="http://www.w3.org/2000/svg">
<path d="M52.3534 3.27895H41.5621V1.65076C41.5621 0.739264 40.8246 0 39.9152 0C39.0059 0 38.2683 0.739264 38.2683 1.65076V3.27895H28.6469V1.65076C28.6469 0.739264 27.9094 0 27 0C26.0906 0 25.3531 0.739264 25.3531 1.65076V3.27895H16.1407V1.65076C16.1407 0.739264 15.4031 0 14.4938 0C13.5844 0 12.8469 0.739264 12.8469 1.65076V3.27895H1.64689C0.737534 3.27895 0 4.01822 0 4.92971V42.2291C0 43.1406 0.737534 43.8799 1.64689 43.8799H11.755C13.3747 50.8169 19.5928 56 27 56C34.4072 56 40.6253 50.8166 42.245 43.8799H52.3531C53.2625 43.8799 54 43.1406 54 42.2291V4.92971C54.0003 4.01822 53.263 3.27895 52.3534 3.27895ZM12.8469 6.58047V8.0722C12.8469 8.98369 13.5844 9.72296 14.4938 9.72296C15.4031 9.72296 16.1407 8.98369 16.1407 8.0722V6.58047H25.3531V8.0722C25.3531 8.98369 26.0906 9.72296 27 9.72296C27.9094 9.72296 28.6469 8.98369 28.6469 8.0722V6.58047H38.2683V8.0722C38.2683 8.98369 39.0059 9.72296 39.9152 9.72296C40.8246 9.72296 41.5621 8.98369 41.5621 8.0722V6.58047H50.7065V13.331H3.29379V6.58047H12.8469ZM27 52.6985C20.1813 52.6985 14.6337 47.1379 14.6337 40.3032C14.6337 33.4685 20.1813 27.908 27 27.908C33.8187 27.908 39.3663 33.4683 39.3663 40.3032C39.3663 47.1382 33.819 52.6985 27 52.6985ZM42.6532 40.5784C42.6548 40.4865 42.66 40.3954 42.66 40.3032C42.66 31.648 35.6349 24.6065 27 24.6065C18.3651 24.6065 11.34 31.648 11.34 40.3032C11.34 40.3954 11.3455 40.4865 11.3468 40.5784H3.29351V16.6328H50.7062V40.5784H42.6532Z" fill="#5E77FF"/>
</svg>
