<svg width="19" height="19" viewBox="0 0 19 19" fill="none" xmlns="http://www.w3.org/2000/svg">
<path d="M11.0769 9.49976L18.6732 1.90323C19.1089 1.46754 19.1089 0.761567 18.6732 0.326803C18.2385 -0.108893 17.5325 -0.108893 17.0969 0.326803L9.50056 7.92334L1.90246 0.326772C1.46768 -0.108924 0.760835 -0.108924 0.326085 0.326772C-0.108695 0.761567 -0.108695 1.46754 0.326085 1.9032L7.92329 9.49976L0.326085 17.0973C-0.108695 17.5321 -0.108695 18.2389 0.326085 18.6737C0.54391 18.8916 0.829542 19 1.11427 19C1.3999 19 1.68463 18.8916 1.90246 18.6737L9.49966 11.0762L17.0959 18.6737C17.3138 18.8916 17.5994 19 17.8842 19C18.1698 19 18.4554 18.8916 18.6723 18.6737C19.108 18.238 19.108 17.532 18.6723 17.0973L11.0769 9.49976Z" fill="#0018AB"/>
</svg>
