<svg width="16" height="21" viewBox="0 0 16 21" fill="none" xmlns="http://www.w3.org/2000/svg">
<path d="M15.9977 4.71773C15.9965 4.70617 15.9946 4.69484 15.9927 4.68351C15.992 4.67955 15.9916 4.67551 15.9909 4.67156C15.9882 4.65789 15.9847 4.64452 15.9809 4.63128C15.9804 4.62971 15.9802 4.62809 15.9797 4.62657C15.9757 4.61315 15.9709 4.60001 15.9658 4.58711C15.9653 4.58568 15.9649 4.5842 15.9643 4.58282C15.9593 4.57063 15.9537 4.55883 15.9477 4.54721C15.9467 4.54507 15.9458 4.54278 15.9447 4.54064C15.9391 4.53022 15.933 4.52022 15.9268 4.51027C15.9248 4.50708 15.923 4.5037 15.921 4.50056C15.9151 4.49161 15.9086 4.48314 15.9021 4.47466C15.8992 4.47085 15.8967 4.46685 15.8936 4.46309C15.886 4.45372 15.8778 4.44486 15.8696 4.4361C15.8673 4.43367 15.8654 4.43106 15.863 4.42867L12.5882 1.0963C12.586 1.09406 12.5835 1.09211 12.5812 1.08992C12.5725 1.0814 12.5637 1.07297 12.5543 1.06517C12.5509 1.06226 12.5471 1.05974 12.5435 1.05698C12.535 1.05022 12.5265 1.04346 12.5175 1.03737C12.5146 1.03537 12.5115 1.03375 12.5085 1.03184C12.4986 1.02537 12.4886 1.01899 12.4781 1.01333C12.4761 1.01228 12.4741 1.01142 12.4721 1.01037C12.4605 1.00428 12.4488 0.998472 12.4367 0.993331C12.4354 0.99276 12.434 0.992379 12.4327 0.991808C12.4199 0.986571 12.407 0.981715 12.3937 0.977621C12.3921 0.977145 12.3905 0.976859 12.3889 0.976383C12.376 0.972527 12.3629 0.969005 12.3495 0.966291C12.3455 0.965482 12.3415 0.965149 12.3376 0.964434C12.3265 0.962483 12.3154 0.960483 12.3041 0.959341C12.2886 0.957627 12.273 0.956818 12.2573 0.956818H0.467836C0.209497 0.956818 0 1.16995 0 1.43287V20.475C0 20.7379 0.209497 20.9511 0.467836 20.9511H15.5322C15.7905 20.9511 16 20.7379 16 20.475V4.76524C16 4.7493 15.9992 4.73344 15.9977 4.71773ZM12.7251 2.58216L14.4027 4.28919H12.7251V2.58216ZM0.935673 19.999V1.90892H11.7895V4.76524C11.7895 5.02817 11.999 5.2413 12.2573 5.2413H15.0643V19.999H0.935673Z" fill="#777777"/>
<path d="M4.21045 8.28792C4.21045 8.55077 4.41995 8.76384 4.67829 8.76384H7.67244C7.93078 8.76384 8.14027 8.55077 8.14027 8.28792C8.14027 8.02507 7.93078 7.812 7.67244 7.812H4.67829C4.41995 7.812 4.21045 8.02507 4.21045 8.28792Z" fill="#777777"/>
<path d="M7.57899 5.90736C7.57899 5.12009 6.94938 4.4796 6.17548 4.4796C5.40159 4.4796 4.77197 5.12009 4.77197 5.90736C4.77197 6.69462 5.40159 7.33511 6.17548 7.33511C6.94938 7.33511 7.57899 6.69462 7.57899 5.90736ZM5.70765 5.90736C5.70765 5.64493 5.91752 5.43144 6.17548 5.43144C6.43345 5.43144 6.64332 5.64493 6.64332 5.90736C6.64332 6.16978 6.43345 6.38328 6.17548 6.38328C5.91752 6.38328 5.70765 6.16978 5.70765 5.90736Z" fill="#777777"/>
<path d="M2.80695 10.6678H9.54379C9.80213 10.6678 10.0116 10.4546 10.0116 10.1917V8.6735C10.0116 8.41057 9.80213 8.19744 9.54379 8.19744C9.28545 8.19744 9.07595 8.41057 9.07595 8.6735V9.71567H3.27478V3.81261H9.07595V7.04977C9.07595 7.3127 9.28545 7.52583 9.54379 7.52583C9.80213 7.52583 10.0116 7.3127 10.0116 7.04977V3.33656C10.0116 3.07363 9.80213 2.8605 9.54379 2.8605H2.80695C2.54861 2.8605 2.33911 3.07363 2.33911 3.33656V10.1917C2.33911 10.4546 2.54861 10.6678 2.80695 10.6678Z" fill="#777777"/>
<path d="M13.1929 12.0965H2.80695C2.54861 12.0965 2.33911 12.3095 2.33911 12.5724C2.33911 12.8352 2.54861 13.0483 2.80695 13.0483H13.1929C13.4513 13.0483 13.6607 12.8352 13.6607 12.5724C13.6607 12.3095 13.4513 12.0965 13.1929 12.0965Z" fill="#777777"/>
<path d="M13.1929 14.4767H2.80695C2.54861 14.4767 2.33911 14.6898 2.33911 14.9526C2.33911 15.2155 2.54861 15.4286 2.80695 15.4286H13.1929C13.4513 15.4286 13.6607 15.2155 13.6607 14.9526C13.6607 14.6898 13.4513 14.4767 13.1929 14.4767Z" fill="#777777"/>
<path d="M13.1929 16.857H2.80695C2.54861 16.857 2.33911 17.0701 2.33911 17.3329C2.33911 17.5958 2.54861 17.8088 2.80695 17.8088H13.1929C13.4513 17.8088 13.6607 17.5958 13.6607 17.3329C13.6607 17.0701 13.4513 16.857 13.1929 16.857Z" fill="#777777"/>
</svg>
