<svg width="172" height="159" viewBox="0 0 172 159" fill="none" xmlns="http://www.w3.org/2000/svg">
<path d="M188.188 39.5933L124.128 16.2721L177.05 0.431825C179.164 -0.201135 181.481 -0.136878 183.543 0.615481L201.983 7.32582C204.497 8.24169 206.384 10.0811 207.112 12.3257C207.845 14.5698 207.34 16.9741 205.739 18.8639L188.188 39.5933Z" fill="#B3B3B3" fill-opacity="0.25"/>
<path d="M0.719727 10.0688C5.73184 0.0191326 36.4163 1.55742 48.1955 5.83997L215.917 66.8952C236.138 53.6999 229.833 57.8151 244.205 48.4358C246.776 46.7608 250.201 46.3902 253.179 47.4743L267.547 52.7035C269.899 53.5627 271.71 55.2343 272.528 57.2991C273.347 59.3682 273.092 61.6354 271.83 63.5323C259.846 81.5707 265.794 72.6163 243.498 106.182C239.299 112.503 230.213 115.125 222.383 112.274C207.595 106.892 225.602 113.446 158.711 89.0977C153.238 108.56 157.62 92.987 140.695 153.126C140.078 155.321 138.361 157.168 136 158.183C133.638 159.195 130.875 159.272 128.443 158.386L110.145 151.725C107.668 150.82 105.794 149.015 105.043 146.805C80.7972 75.3409 83.9987 84.7773 75.1402 58.6768L30.0082 42.2452C18.2217 37.955 -4.30588 20.119 0.719727 10.0688Z" fill="#B3B3B3" fill-opacity="0.25"/>
</svg>
