<svg width="22" height="25" viewBox="0 0 22 25" fill="none" xmlns="http://www.w3.org/2000/svg">
<path d="M5.81243 12.8097C5.81243 12.1365 5.34794 11.7347 4.52823 11.7347C4.19385 11.7347 3.96731 11.7672 3.84851 11.7997V13.9615C3.98896 13.9935 4.1616 14.0045 4.39838 14.0045C5.27294 14.0045 5.81243 13.5593 5.81243 12.8097Z" fill="#1405F8"/>
<path d="M10.886 11.7565C10.5187 11.7565 10.2818 11.789 10.141 11.8216V16.6111C10.2815 16.6442 10.5082 16.6442 10.7133 16.6442C12.2024 16.6547 13.1738 15.8297 13.1738 14.0809C13.1847 12.5598 12.2995 11.7565 10.886 11.7565Z" fill="#1405F8"/>
<path d="M20.6076 8.94238H20.0111V6.04588C20.0111 6.02781 20.0083 6.00961 20.0059 5.99132C20.005 5.87631 19.9686 5.76333 19.8904 5.67383L15.1008 0.167665C15.0993 0.166258 15.0979 0.165759 15.0969 0.164215C15.0684 0.132126 15.0351 0.105437 14.9999 0.0823346C14.9895 0.0752994 14.979 0.0693989 14.9681 0.0633169C14.9376 0.0465685 14.9053 0.0326797 14.872 0.0226488C14.8629 0.0201071 14.8548 0.0163852 14.8458 0.014025C14.8096 0.00540122 14.7721 0 14.734 0H2.96296C2.42544 0 1.98877 0.43995 1.98877 0.980436V8.94216H1.3924C0.623476 8.94216 0 9.56934 0 10.3434V17.6303C0 18.4039 0.623476 19.0315 1.3924 19.0315H1.98882V24.0196C1.98882 24.56 2.42549 25 2.963 25H19.037C19.574 25 20.0112 24.56 20.0112 24.0196V19.0315H20.6077C21.3764 19.0315 22 18.4039 22 17.6303V10.3437C22 9.56961 21.3763 8.94238 20.6076 8.94238ZM2.96296 0.980617H14.2469V5.99663C14.2469 6.26746 14.4652 6.48682 14.734 6.48682H19.037V8.9427H2.96296V0.980617ZM14.9219 14.0261C14.9219 15.4275 14.4148 16.3938 13.7123 16.9914C12.9469 17.6322 11.7811 17.9362 10.357 17.9362C9.50454 17.9362 8.90032 17.8818 8.48972 17.8277V10.6375C9.09403 10.5399 9.88235 10.4856 10.7134 10.4856C12.094 10.4856 12.99 10.7356 13.6918 11.2675C14.4469 11.8323 14.9219 12.7336 14.9219 14.0261ZM2.21879 17.8603V10.6375C2.72577 10.551 3.43841 10.4856 4.44209 10.4856C5.45646 10.4856 6.1797 10.6811 6.66516 11.0724C7.12934 11.4414 7.44158 12.0498 7.44158 12.7666C7.44158 13.4837 7.2048 14.0919 6.77277 14.5043C6.21163 15.0366 5.38073 15.2758 4.40916 15.2758C4.19367 15.2758 3.99875 15.2647 3.84833 15.2429V17.8605H2.21879V17.8603ZM19.037 23.7542H2.96296V19.0315H19.037V23.7542H19.037ZM20.4485 11.8975H17.6528V13.5701H20.2647V14.917H17.6528V17.8604H16.0024V10.5399H20.4485V11.8975Z" fill="#1405F8"/>
</svg>
