<svg width="130" height="130" viewBox="0 0 130 130" fill="none" xmlns="http://www.w3.org/2000/svg">
<circle cx="65" cy="65" r="65" fill="#1405F8"/>
<path d="M88.8429 81.4216L84.6895 71.441C84.6864 71.4338 84.6835 71.4269 84.6804 71.4197C83.005 67.5401 81.2335 64.79 79.1053 62.7655C76.2915 60.0883 72.82 58.7309 68.7879 58.7309H61.2116C57.1795 58.7309 53.7082 60.0883 50.8944 62.7655C48.7666 64.79 46.9951 67.5399 45.3195 71.4197C45.3164 71.4269 45.3135 71.434 45.3104 71.441L41.157 81.4216C40.9665 81.8799 40.9799 82.3975 41.1942 82.8451C41.4085 83.2927 41.8034 83.6278 42.2799 83.7663L51.2095 86.3643V91.0891C51.2095 91.8815 51.7437 92.5744 52.5101 92.7758L64.5531 95.9419C64.5688 95.9459 64.5847 95.95 64.6006 95.9537H64.6008C64.6017 95.9539 64.6029 95.9541 64.6039 95.9543C64.6049 95.9545 64.6064 95.9548 64.6076 95.955C64.6089 95.9552 64.6103 95.9556 64.6116 95.956C64.6128 95.9562 64.6142 95.9566 64.6153 95.9568C64.6169 95.9572 64.6182 95.9574 64.6196 95.9578C64.6198 95.9578 64.62 95.9578 64.6202 95.9578C64.743 95.9853 64.867 95.9988 64.9909 95.9996C64.9909 95.9996 64.9936 95.9996 64.9949 95.9996C64.9969 95.9996 64.998 95.9996 64.9996 95.9996C65.0011 95.9996 65.0025 95.9996 65.0036 95.9996C65.005 95.9996 65.0067 95.9996 65.0081 95.9996H65.0083C65.1435 95.999 65.2796 95.9826 65.4137 95.9496C65.4139 95.9496 65.4141 95.9496 65.4141 95.9496C65.4154 95.9494 65.4168 95.949 65.4179 95.9488C65.4181 95.9488 65.4183 95.9488 65.4185 95.9486C65.4199 95.9484 65.4212 95.9481 65.4226 95.9477C65.423 95.9477 65.4234 95.9475 65.4237 95.9475C65.4247 95.9473 65.4255 95.9471 65.4265 95.9469C65.4278 95.9467 65.4292 95.9463 65.4305 95.9459C65.4317 95.9455 65.433 95.9454 65.4342 95.945C65.4371 95.9444 65.4398 95.9436 65.4427 95.9428C65.4429 95.9428 65.4431 95.9428 65.4433 95.9426H65.4439C65.4443 95.9426 65.4445 95.9424 65.4449 95.9424L77.4902 92.776C78.2566 92.5744 78.7908 91.8817 78.7908 91.0893V86.3645L87.72 83.7665C88.1965 83.628 88.5912 83.2929 88.8057 82.8453C89.0202 82.3977 89.0334 81.8799 88.8429 81.4216ZM63.256 91.9943L54.6979 89.7443V87.3791L56.4568 87.8909C57.3826 88.1602 58.3496 87.6283 58.6185 86.7036C58.8877 85.7789 58.3562 84.811 57.4313 84.5418L54.6979 83.7466V78.4261L63.256 80.676V91.9943ZM75.3028 83.7464L72.7681 84.4839C71.8434 84.753 71.3116 85.7208 71.5808 86.6457C71.8499 87.5705 72.8171 88.1021 73.7426 87.8329L75.3028 87.3789V89.7443L66.7439 91.9943V80.6762L75.3028 78.4261V83.7464ZM78.7908 82.7316V76.1643C78.7908 75.6235 78.5401 75.1135 78.1118 74.7833C77.6836 74.4531 77.1261 74.3401 76.6035 74.4777L75.427 74.7869V72.5116C75.427 71.5484 74.6463 70.7676 73.6831 70.7676C72.7198 70.7676 71.9391 71.5484 71.9391 72.5116V75.7041L65 77.5285L58.0608 75.7041V72.5118C58.0608 71.5486 57.2801 70.7678 56.3169 70.7678C55.3536 70.7678 54.5729 71.5486 54.5729 72.5118V74.7871L53.3972 74.4781C52.875 74.3407 52.3173 74.4535 51.8889 74.7837C51.4608 75.1138 51.2099 75.6241 51.2099 76.1647V82.7322L45.1267 80.9624L48.5265 72.7926C51.729 65.382 55.5235 62.2194 61.2122 62.2194H68.7881C74.4766 62.2194 78.2711 65.382 81.4738 72.7926L84.8736 80.9624L78.7908 82.7316ZM65.0999 55.7599C71.0991 55.7599 75.9797 50.8791 75.9797 44.8799C75.9799 38.8808 71.0991 34 65.0999 34C61.3973 34 58.1205 35.8593 56.1545 38.6933C56.0967 38.7657 56.0454 38.8421 56.0002 38.9217C54.8748 40.6345 54.2198 42.6821 54.2198 44.8801C54.22 50.8792 59.1006 55.7599 65.0999 55.7599ZM57.9756 42.9059C59.9304 44.6001 62.4481 45.5616 65.1001 45.5616C66.3535 45.5616 67.5834 45.3497 68.7555 44.9317C69.6628 44.6083 70.136 43.6105 69.8126 42.7033C69.4892 41.7962 68.4918 41.3228 67.5842 41.6464C66.7889 41.9299 65.9531 42.0737 65.1001 42.0737C63.0591 42.0737 61.1345 41.2352 59.7506 39.7838C61.0975 38.3702 62.9979 37.488 65.0999 37.488C69.1758 37.488 72.4917 40.8041 72.4917 44.8799C72.4917 48.9558 69.1758 52.2719 65.0999 52.2719C61.0241 52.2719 57.708 48.9558 57.708 44.8799C57.708 44.1965 57.8012 43.5346 57.9756 42.9059Z" fill="white"/>
</svg>
