<svg width="21" height="21" viewBox="0 0 21 21" fill="none" xmlns="http://www.w3.org/2000/svg">
<g clip-path="url(#clip0)">
<path d="M20.51 8.26691L17.4362 4.45244C17.0645 3.99138 16.5356 3.70265 15.9472 3.6394C15.3619 3.57616 14.773 3.75169 14.3179 4.11742L13.5369 4.74713C13.1011 5.09819 12.8344 5.5817 12.7454 6.09409H8.56983C8.46441 6.09409 8.36084 6.10325 8.26047 6.12021C8.17614 5.5982 7.90712 5.10415 7.46393 4.74713L6.68207 4.11696C6.22789 3.75123 5.64125 3.57616 5.05417 3.63895C4.46479 3.70219 3.93636 3.99092 3.56376 4.45244L0.49128 8.26599C0.119136 8.72705 -0.0508949 9.30543 0.0132678 9.89435C0.0765139 10.4837 0.364788 11.0117 0.826301 11.3843L1.60771 12.014C2.00094 12.3302 2.49453 12.5049 2.99821 12.5049C3.24157 12.5049 3.47897 12.4654 3.70308 12.3903L9.39432 16.9408C9.75959 17.2199 10.2142 17.3739 10.6734 17.3739C10.7349 17.3739 10.7963 17.3711 10.8568 17.3656C11.2674 17.329 11.6638 17.1713 11.9869 16.9124L17.5476 12.4636C17.6951 12.4943 17.8473 12.5168 18.0017 12.5168C18.0022 12.5168 18.0022 12.5168 18.0022 12.5168C18.5059 12.5168 18.9999 12.3353 19.3927 12.0195L20.1741 11.3866C20.6352 11.0144 20.9244 10.4846 20.9862 9.89573C21.0518 9.30772 20.8822 8.72797 20.51 8.26691ZM1.70166 10.2995C1.53072 10.1615 1.42347 9.96493 1.4001 9.74632C1.37627 9.52771 1.43951 9.31322 1.577 9.14182L4.64948 5.32872C4.78789 5.15731 4.98405 5.05052 5.20266 5.02623C5.23199 5.02303 5.26178 5.02165 5.29065 5.02165C5.4781 5.02165 5.66188 5.08673 5.8067 5.2036L6.58857 5.83331C6.94193 6.11838 6.9983 6.63764 6.71277 6.99099L3.63984 10.8041C3.36439 11.1464 2.8268 11.2056 2.48307 10.9287L1.70166 10.2995ZM15.4692 12.338C15.3188 12.4586 15.1053 12.4581 14.9554 12.3367L11.6602 9.66795C11.4026 9.45988 11.0809 9.34668 10.7504 9.34851L8.57028 9.35951C8.29805 9.35951 8.0799 9.13219 8.0799 8.85996V7.98872C8.0799 7.71649 8.29851 7.50154 8.57028 7.50154H12.5699C12.6937 7.50154 12.8096 7.557 12.8875 7.65232L15.9559 11.4187C16.0242 11.5039 16.0572 11.6125 16.0452 11.7207C16.0342 11.8293 15.9788 11.9288 15.8945 11.9975L15.4692 12.338ZM19.6021 9.74678C19.5779 9.96539 19.4715 10.1615 19.3001 10.2995L18.5187 10.9292C18.3707 11.0484 18.1929 11.1112 18.0036 11.1112C17.752 11.1112 17.5178 10.9989 17.361 10.8045L14.2886 6.99099C14.0044 6.63764 14.0594 6.11838 14.4132 5.83331L15.1937 5.20406C15.3399 5.08673 15.5232 5.02165 15.7107 5.02165C15.7391 5.02165 15.7698 5.02303 15.7987 5.02623C16.0173 5.05007 16.213 5.15731 16.3509 5.32826L19.4239 9.14227C19.5627 9.31322 19.6251 9.52771 19.6021 9.74678Z" fill="#777777"/>
</g>
<defs>
<clipPath id="clip0">
<rect width="21" height="21" fill="white"/>
</clipPath>
</defs>
</svg>
