<svg width="130" height="130" viewBox="0 0 130 130" fill="none" xmlns="http://www.w3.org/2000/svg">
<circle cx="65" cy="65" r="65" fill="#1405F8"/>
<path fill-rule="evenodd" clip-rule="evenodd" d="M47.5625 53.375H43.6875V57.25H47.5625V53.375ZM63.0625 49.5H59.1875V53.375H63.0625V49.5ZM70.8125 49.5H66.9375V53.375H70.8125V49.5ZM78.5625 49.5H74.6875V53.375H78.5625V49.5ZM63.0625 41.75H59.1875V45.625H63.0625V41.75ZM70.8125 41.75H66.9375V45.625H70.8125V41.75ZM78.5625 41.75H74.6875V45.625H78.5625V41.75ZM63.0625 65H59.1875V68.875H63.0625V65ZM70.8125 65H66.9375V68.875H70.8125V65ZM78.5625 65H74.6875V68.875H78.5625V65ZM63.0625 72.75H59.1875V76.625H63.0625V72.75ZM78.5625 72.75H74.6875V76.625H78.5625V72.75ZM63.0625 80.5H59.1875V84.375H63.0625V80.5ZM78.5625 80.5H74.6875V84.375H78.5625V80.5ZM63.0625 57.25H59.1875V61.125H63.0625V57.25ZM70.8125 57.25H66.9375V61.125H70.8125V57.25ZM78.5625 57.25H74.6875V61.125H78.5625V57.25ZM47.5625 61.125H43.6875V65H47.5625V61.125ZM47.5625 68.875H43.6875V72.75H47.5625V68.875ZM47.5625 76.625H43.6875V80.5H47.5625V76.625ZM47.5625 84.375H43.6875V88.25H47.5625V84.375ZM70.8125 72.75H66.9375V76.625H70.8125V72.75ZM90.1875 61.125H86.3125V37.875C86.3125 35.7331 84.5794 34 82.4375 34H55.3125C53.1706 34 51.4375 35.7331 51.4375 37.875V45.625H39.8125C37.6706 45.625 35.9375 47.3581 35.9375 49.5V92.125C35.9375 94.2669 37.6706 96 39.8125 96H90.1875C92.3294 96 94.0625 94.2669 94.0625 92.125V65C94.0625 62.8581 92.3294 61.125 90.1875 61.125ZM51.4375 92.125H39.8125V49.5H51.4375V92.125ZM82.4375 92.125H70.8125V80.5H66.9375V92.125H55.3125V37.875H82.4375V92.125ZM90.1875 92.125H86.3125V88.25H90.1875V92.125ZM90.1875 84.375H86.3125V80.5H90.1875V84.375ZM90.1875 76.625H86.3125V72.75H90.1875V76.625ZM90.1875 68.875H86.3125V65H90.1875V68.875Z" fill="white"/>
</svg>
