<svg width="21" height="17" viewBox="0 0 21 17" fill="none" xmlns="http://www.w3.org/2000/svg">
<path d="M19.2258 13.4525C19.2258 13.6597 19.0499 13.826 18.831 13.826H13.4758C11.57 13.826 10.8781 14.6715 10.8781 14.6715L10.7904 14.7868L10.7494 14.8429C10.749 14.8429 10.749 14.8429 10.749 14.8429C10.5674 15.0848 10.3001 14.8448 10.2988 14.8435L10.1755 14.6923C10.0841 14.5846 9.38408 13.826 7.69014 13.826H2.16879C1.95087 13.826 1.77483 13.659 1.77483 13.4526V2.27117C1.77483 2.06468 1.95087 1.89755 2.16879 1.89755H6.45531C9.64374 1.89755 9.94572 3.67524 9.96659 4.19173V11.9678C9.96659 12.533 10.241 12.6391 10.3957 12.6549H10.6261C10.7837 12.6391 11.0347 12.5471 11.0347 12.1061V4.09138H11.0322C11.0559 3.44463 11.3126 1.89722 13.2306 1.89722H18.8311C19.0499 1.89722 19.2258 2.06435 19.2258 2.27085V13.4525H19.2258ZM20.645 4.09138H20.6264C20.266 4.09374 20.2102 3.78658 20.204 3.64404V1.414C20.204 1.17602 20.0076 0.983032 19.7656 0.983032H13.2698C11.64 0.983032 11.0321 1.57593 10.8813 1.76209L10.8399 1.81849L10.8395 1.81943L10.7112 1.99241C10.7105 1.99241 10.7105 1.99241 10.7105 1.99241C10.5381 2.22505 10.388 2.12598 10.3154 2.0499L10.0696 1.74887L9.94791 1.60491C9.74378 1.39431 9.211 0.983032 8.1551 0.983032H1.23483C0.992193 0.983032 0.795767 1.17598 0.795767 1.414V3.61571C0.795767 4.00114 0.582507 4.07849 0.451532 4.09142H0.354299C0.247928 4.09785 0 4.1585 0 4.60599V15.0993C0 15.3564 0.212779 15.5649 0.474989 15.5649H6.79085C8.80572 15.5649 9.68385 16.3109 9.94702 16.5969L10.0972 16.7796H10.0976C10.0976 16.7796 10.5007 17.2269 10.9253 16.7796L11.0136 16.6782L11.0148 16.6775L11.1272 16.5484C11.1304 16.5446 11.1573 16.5149 11.1965 16.4759C11.5329 16.1546 12.3731 15.5648 14.0163 15.5648H20.525C20.7876 15.5648 21 15.3563 21 15.0993V4.50434C21 4.12494 20.7201 4.09342 20.645 4.09138Z" fill="black"/>
</svg>
