<svg width="62" height="56" viewBox="0 0 62 56" fill="none" xmlns="http://www.w3.org/2000/svg">
<path d="M47.3969 23.5396C47.3955 23.528 47.3946 23.5162 47.3929 23.5048C47.3848 23.4476 47.374 23.3906 47.3587 23.3343C47.3586 23.3337 47.3583 23.3332 47.3581 23.3325C47.3438 23.2798 47.3256 23.2279 47.305 23.1765C47.2991 23.1618 47.2926 23.1477 47.2863 23.1333C47.2701 23.0962 47.252 23.0597 47.2323 23.0237C47.2238 23.008 47.2155 22.9923 47.2062 22.9769C47.2013 22.9686 47.1974 22.9599 47.1922 22.9516C47.1714 22.9183 47.1487 22.8871 47.1257 22.8561C47.1214 22.8503 47.1179 22.8442 47.1135 22.8385C47.0784 22.7927 47.0406 22.7501 47.0009 22.7098C46.9934 22.7022 46.9853 22.6951 46.9776 22.6877C46.9431 22.6542 46.9073 22.6228 46.87 22.5932C46.8605 22.5857 46.8512 22.5782 46.8414 22.571C46.7915 22.5336 46.74 22.4988 46.6862 22.4687L26.0209 10.6206L37.9193 3.06343L57.8668 14.4997L49.4658 19.8354C48.8102 20.2517 48.6134 21.1253 49.0262 21.7865C49.4389 22.4478 50.3049 22.6463 50.9606 22.2299L61.3442 15.635C61.7617 15.37 62.0104 14.9032 61.9991 14.4058C61.9881 13.9083 61.7189 13.4536 61.2899 13.2077L38.5755 0.184836C38.1262 -0.0729445 37.5726 -0.060211 37.135 0.217519L22.553 9.47909C22.5501 9.48093 22.547 9.48291 22.544 9.48475L15.2574 14.1128C15.254 14.1149 15.2507 14.117 15.2474 14.1191L0.655531 23.3871C0.238086 23.6521 -0.0106132 24.1188 0.000608419 24.6163C0.0116898 25.1137 0.280869 25.5684 0.709816 25.8143L23.4244 38.8372C23.6395 38.9607 23.8786 39.0221 24.1174 39.0221C24.3774 39.0221 24.6369 38.9493 24.8648 38.8045L35.2485 32.2095C35.9041 31.7932 36.1009 30.9196 35.6881 30.2584C35.2755 29.5971 34.4092 29.3985 33.7537 29.815L24.0806 35.9588L4.13311 24.5222L16.0317 16.9649L37.3065 29.1624V45.3171C37.3065 45.8324 37.5841 46.3068 38.0313 46.5558C38.2427 46.6735 38.4761 46.7319 38.7092 46.7319C38.9693 46.7319 39.2288 46.6591 39.4566 46.5143L46.7526 41.8804C47.1605 41.6213 47.4079 41.1693 47.4079 40.6831V23.7053C47.4079 23.6969 47.4065 23.689 47.4063 23.6806C47.4054 23.6337 47.4023 23.5867 47.3969 23.5396ZM40.1119 42.7544V28.3394C40.1119 27.8305 39.8409 27.3609 39.4023 27.1095L18.7249 15.2545L23.3276 12.3311L43.2749 23.7675L41.5284 24.8767C40.8727 25.293 40.6759 26.1666 41.0888 26.8278C41.3553 27.2551 41.811 27.4889 42.2771 27.4889C42.5324 27.4889 42.7911 27.4186 43.0231 27.2712L44.6024 26.2682V39.9023L40.1119 42.7544Z" fill="#5E77FF"/>
<path d="M59.8497 18.8995L49.4661 25.4944C48.8104 25.9106 48.6136 26.7843 49.0265 27.4454C49.293 27.8727 49.7487 28.1066 50.2148 28.1066C50.4701 28.1066 50.7288 28.0363 50.9608 27.8888L61.3444 21.2939C62.0001 20.8777 62.1969 20.004 61.7841 19.3429C61.3714 18.6816 60.5052 18.483 59.8497 18.8995Z" fill="#5E77FF"/>
<path d="M33.7537 35.4742L24.0805 41.6179L2.09608 29.0137C1.42306 28.6277 0.566286 28.8648 0.183488 29.5445C-0.19931 30.2238 0.036204 31.0875 0.709783 31.4736L23.4243 44.4965C23.6395 44.62 23.8785 44.6814 24.1174 44.6814C24.3773 44.6814 24.6368 44.6086 24.8648 44.4638L35.2484 37.8688C35.904 37.4525 36.1008 36.5789 35.688 35.9177C35.2755 35.2563 34.4092 35.0577 33.7537 35.4742Z" fill="#5E77FF"/>
<path d="M59.8497 24.5592L49.4661 31.1541C48.8104 31.5703 48.6136 32.444 49.0265 33.1051C49.293 33.5324 49.7487 33.7663 50.2148 33.7663C50.4701 33.7663 50.7288 33.696 50.9608 33.5485L61.3444 26.9536C62.0001 26.5374 62.1969 25.6637 61.7841 25.0026C61.3714 24.3412 60.5052 24.1427 59.8497 24.5592Z" fill="#5E77FF"/>
<path d="M33.7537 41.1334L24.0805 47.2771L2.09608 34.6729C1.42306 34.2869 0.566286 34.524 0.183488 35.2037C-0.19931 35.883 0.036204 36.7467 0.709783 37.1328L23.4243 50.1557C23.6395 50.2792 23.8785 50.3406 24.1174 50.3406C24.3773 50.3406 24.6368 50.2677 24.8648 50.123L35.2484 43.528C35.904 43.1117 36.1008 42.2381 35.688 41.5769C35.2755 40.9153 34.4092 40.7168 33.7537 41.1334Z" fill="#5E77FF"/>
<path d="M59.8497 30.2183L49.4661 36.8132C48.8104 37.2294 48.6136 38.1031 49.0265 38.7642C49.293 39.1915 49.7487 39.4254 50.2148 39.4254C50.4701 39.4254 50.7288 39.355 50.9608 39.2076L61.3444 32.6127C62.0001 32.1965 62.1969 31.3228 61.7841 30.6617C61.3714 30.0004 60.5052 29.8019 59.8497 30.2183Z" fill="#5E77FF"/>
<path d="M33.7537 46.7925L24.0805 52.9363L2.09608 40.332C1.42306 39.9461 0.566286 40.1832 0.183488 40.8629C-0.19931 41.5421 0.036204 42.4059 0.709783 42.792L23.4243 55.8149C23.6395 55.9384 23.8785 55.9998 24.1174 55.9998C24.3773 55.9998 24.6368 55.9269 24.8648 55.7822L35.2484 49.1871C35.904 48.7709 36.1008 47.8972 35.688 47.2361C35.2755 46.5747 34.4092 46.376 33.7537 46.7925Z" fill="#5E77FF"/>
</svg>
