<svg width="46" height="45" viewBox="0 0 46 45" fill="none" xmlns="http://www.w3.org/2000/svg">
<path d="M40.5214 34.9696C38.2969 35.7059 35.9832 36.0786 33.6406 36.0786C21.5629 36.0786 11.7366 26.2536 11.7366 14.1738C11.7366 9.29856 13.309 4.68032 16.2837 0.821074C16.4204 0.64245 16.4243 0.397731 16.2953 0.21445C16.166 0.0336265 15.9338 -0.0456615 15.7206 0.0265126C6.3164 3.13569 0 11.8818 0 21.7878C0 34.4268 10.2826 44.7117 22.922 44.7117C30.0843 44.7117 36.7047 41.4495 41.0836 35.7642C41.2227 35.5864 41.2266 35.3416 41.0976 35.1599C40.9679 34.9766 40.734 34.8982 40.5214 34.9696Z" fill="#5E77FF"/>
<path d="M29.2375 12.9118L32.6021 10.4668L35.9652 12.9118L34.6806 8.9576L38.0437 6.51338H33.8869L32.603 2.55933L31.319 6.51338H27.1592L30.5222 8.9576L29.2375 12.9118Z" fill="#5E77FF"/>
<path d="M46 13.7032H44.2976L43.7718 12.0838L43.2452 13.7032H41.5436L42.919 14.7044L42.394 16.323L43.771 15.3226L45.1472 16.323L44.6222 14.7044L46 13.7032Z" fill="#5E77FF"/>
</svg>
