<svg width="183" height="263" viewBox="0 0 183 263" fill="none" xmlns="http://www.w3.org/2000/svg">
<path d="M164.937 68.8759C163.743 59.0272 160.239 30.0937 160.239 30.0937C158.977 19.6745 151.126 12.0558 140.708 13.3174C130.288 14.579 124.484 23.853 125.746 34.2715L130.497 73.5011C130.497 73.5011 130.599 74.3349 131.286 74.2516C138.509 73.3771 158.08 71.0061 163.615 70.3358C164.557 70.2219 165.092 70.1572 164.937 68.8759Z" fill="#AEAEAE" fill-opacity="0.3"/>
<path d="M134.813 81.3307C134.357 81.3863 134.211 81.6344 134.282 82.0541C135.065 86.5911 139.735 113.788 140.906 123.453C141.643 129.534 147.805 135.951 152.351 138.533C152.502 138.619 152.783 138.645 152.835 139.075C152.98 140.263 153.146 141.03 153.228 141.716C153.453 143.572 155.135 144.364 156.468 144.173C157.859 143.974 159.426 142.848 159.202 140.992C159.118 140.304 159.096 139.516 158.952 138.325C158.911 137.988 159.125 137.839 159.23 137.741C163.034 134.171 167.548 126.424 166.808 120.315C165.627 110.564 163.669 82.8384 163.373 78.6167C163.349 78.2669 163.285 77.882 162.655 77.9579C155.695 78.8016 141.938 80.4678 134.813 81.3307Z" fill="#AEAEAE" fill-opacity="0.3"/>
<path d="M177.902 57.7266C178.132 59.6262 176.778 61.3535 174.879 61.5834C172.978 61.814 171.252 60.46 171.021 58.5597L167.736 31.4418C167.506 29.5422 168.86 27.8152 170.76 27.5853C172.66 27.3555 174.387 28.7088 174.617 30.6087L177.902 57.7266Z" fill="#AEAEAE" fill-opacity="0.3"/>
<path d="M125.827 107.567C126.857 108.596 126.858 110.281 125.828 111.311L62.6574 174.482C61.6271 175.512 59.9423 175.512 58.9123 174.482L56.9618 172.531C55.9322 171.502 55.9322 169.817 56.9625 168.787L120.133 105.616C121.163 104.586 122.847 104.586 123.877 105.616L125.828 107.566L125.827 107.567Z" fill="#AEAEAE" fill-opacity="0.3"/>
<path d="M165.866 147.606C166.896 148.635 166.895 150.32 165.865 151.351L141.319 175.896C140.289 176.926 138.604 176.926 137.575 175.897L135.975 174.297C134.946 173.268 134.946 171.583 135.976 170.553L160.522 146.008C161.552 144.977 163.237 144.977 164.267 146.006L165.866 147.606Z" fill="#AEAEAE" fill-opacity="0.3"/>
<path d="M108.543 90.2824C109.573 91.312 109.573 92.9965 108.543 94.026L45.3724 157.197C44.3422 158.227 42.6577 158.227 41.6281 157.197L39.6769 155.246C38.6473 154.216 38.6473 152.532 39.6776 151.502L102.849 88.3308C103.878 87.3012 105.563 87.3012 106.592 88.3308L108.543 90.2821L108.543 90.2824Z" fill="#AEAEAE" fill-opacity="0.3"/>
<path d="M173.604 139.631L193.179 159.206C196.756 162.783 196.756 168.636 193.179 172.212L123.558 241.834C119.982 245.41 114.129 245.41 110.552 241.834L20.2743 151.556C16.6976 147.979 16.6976 142.126 20.2743 138.55L89.8951 68.9287C93.4718 65.3521 99.3245 65.3521 102.901 68.9287L123.698 89.7253C125.688 91.7156 125.678 89.7408 125.54 88.6926C125.186 86.0172 124.864 81.3118 124.805 79.4868C124.745 77.6058 124.218 76.475 123.055 75.3115L102.901 55.1574C99.3242 51.5808 93.4715 51.5808 89.8948 55.1574L6.50301 138.549C2.92635 142.126 2.92635 147.979 6.50301 151.555L110.552 255.604C114.129 259.181 119.981 259.181 123.558 255.604L206.95 172.212C210.527 168.635 210.527 162.783 206.95 159.206L177.774 130.03C176.075 128.331 175.352 129.585 175.098 130.325C174.398 132.361 173.531 134.222 172.657 135.834C172.308 136.479 171.592 137.619 173.604 139.631Z" fill="#AEAEAE" fill-opacity="0.3"/>
</svg>
