<svg width="21" height="15" viewBox="0 0 21 15" fill="none" xmlns="http://www.w3.org/2000/svg">
<path d="M6.52402 4.42705L11.4517 2.37421L7.38081 0.979875C7.21815 0.924159 7.03994 0.929815 6.88135 0.996041L5.46284 1.58672C5.2695 1.66733 5.12435 1.82925 5.0683 2.02683C5.01191 2.22437 5.05076 2.436 5.17392 2.60235L6.52402 4.42705Z" fill="#777777"/>
<path d="M20.9446 1.82816C20.5591 0.943539 18.1987 1.07895 17.2927 1.45591L4.39096 6.83027C2.83555 5.66876 3.32053 6.031 2.21501 5.20539C2.01723 5.05795 1.75376 5.02533 1.52468 5.12076L0.419466 5.58105C0.238532 5.65669 0.0992567 5.80383 0.0362952 5.98558C-0.0266662 6.16772 -0.00704746 6.36728 0.0899659 6.53426C1.01183 8.12208 0.554333 7.33387 2.26937 10.2885C2.59239 10.8449 3.29132 11.0757 3.89362 10.8247C5.03112 10.351 3.64597 10.9279 8.79148 8.78464C9.21246 10.4978 8.87536 9.12699 10.1773 14.4207C10.2248 14.6139 10.3568 14.7765 10.5385 14.8659C10.7201 14.9549 10.9327 14.9617 11.1198 14.8837L12.5273 14.2974C12.7179 14.2177 12.862 14.0588 12.9198 13.8643C14.7848 7.5737 14.5386 8.40433 15.22 6.10685L18.6917 4.66047C19.5983 4.28283 21.3312 2.71282 20.9446 1.82816Z" fill="#777777"/>
</svg>
