<svg width="23" height="23" viewBox="0 0 23 23" fill="none" xmlns="http://www.w3.org/2000/svg">
<path d="M14.375 17.25H7.18774V18.6878H14.375V17.25Z" fill="#0018AB"/>
<path d="M5.75023 1.43756H17.2501V4.31254H18.6874V1.43756C18.6875 0.644431 18.0445 0 17.2501 0H5.75023C4.95631 0 4.31262 0.644431 4.31262 1.43756V4.31254H5.75023V1.43756Z" fill="#0018AB"/>
<path d="M15.8123 14.375H7.18774V15.8126H15.8123V14.375Z" fill="#0018AB"/>
<path d="M21.5627 5.75H1.43761C0.643692 5.75 0 6.39424 0 7.18742V15.8125C0 16.6069 0.643692 17.2498 1.43761 17.2498H4.31268V21.5624C4.31268 22.3571 4.95637 22.9999 5.75028 22.9999H17.2501C18.0446 22.9999 18.6875 22.3571 18.6875 21.5624V17.2498H21.5626C22.3571 17.2498 23 16.6069 23 15.8125V7.18742C23 6.39424 22.3572 5.75 21.5627 5.75ZM17.2501 21.5625H5.75028V12.9374H17.2501V21.5625ZM20.1249 10.0625C19.3304 10.0625 18.6875 9.41958 18.6875 8.62498C18.6875 7.8319 19.3304 7.18742 20.1249 7.18742C20.9196 7.18742 21.5627 7.83185 21.5627 8.62498C21.5627 9.41954 20.9196 10.0625 20.1249 10.0625Z" fill="#0018AB"/>
</svg>
