<svg width="18" height="19" viewBox="0 0 18 19" fill="none" xmlns="http://www.w3.org/2000/svg">
<path d="M6.78606 6.25874C6.71567 6.33478 6.66988 6.38384 6.6355 6.42064C6.69932 6.35195 6.78606 6.25874 6.78606 6.25874Z" fill="#777777"/>
<path d="M9.91083 6.83702C10.1448 7.12494 10.261 7.4644 10.261 7.85537C10.261 8.13512 10.1808 8.40422 10.0213 8.66432C9.93372 8.81154 9.81839 8.95388 9.67436 9.08964L9.19492 9.56323C8.7351 10.0148 8.4381 10.4147 8.30228 10.7648C8.16645 11.1141 8.09854 11.5746 8.09854 12.1455H9.16545C9.16545 11.6425 9.22272 11.2621 9.33645 11.0044C9.45016 10.7468 9.69889 10.4327 10.0826 10.0605C10.6103 9.5493 10.9605 9.16162 11.134 8.89822C11.3074 8.63483 11.395 8.29131 11.395 7.86761C11.395 7.1691 11.1585 6.59488 10.6848 6.14501C10.2111 5.69514 9.5811 5.47103 8.79398 5.47103C7.94307 5.47103 7.27381 5.73357 6.78616 6.25872C6.29851 6.78386 6.05469 7.47745 6.05469 8.34038H7.1216C7.14122 7.82097 7.22389 7.42347 7.36707 7.14781C7.62233 6.65296 8.08381 6.40512 8.75142 6.40512C9.29063 6.40514 9.67763 6.5491 9.91083 6.83702Z" fill="#777777"/>
<path d="M18 9.92803C18 4.95899 13.9704 0.930618 9 0.930618C4.02953 0.930618 0 4.95899 0 9.92803C0 14.897 4.02953 18.9254 9 18.9254C13.9704 18.9254 18 14.897 18 9.92803ZM0.818177 9.92803C0.818177 5.4105 4.48118 1.74856 9 1.74856C13.5188 1.74856 17.1818 5.4105 17.1818 9.92803C17.1818 14.4455 13.5188 18.1075 9 18.1075C4.48118 18.1075 0.818177 14.4455 0.818177 9.92803Z" fill="#777777"/>
<path d="M9.26664 13.1393H8.07373V14.3847H9.26664V13.1393Z" fill="#777777"/>
</svg>
