<svg width="20" height="19" viewBox="0 0 20 19" fill="none" xmlns="http://www.w3.org/2000/svg">
<path d="M15.3019 4.29471C15.3019 4.90061 14.8608 5.26909 14.5387 5.5395C14.4167 5.64193 14.1897 5.82881 14.1903 5.89862C14.1925 6.17245 13.9723 6.39113 13.6985 6.39113C13.6971 6.39113 13.6957 6.39113 13.6943 6.39113C13.4224 6.39113 13.2008 6.17917 13.1986 5.90672C13.1942 5.3697 13.5861 5.0481 13.901 4.78369C14.1482 4.5762 14.3102 4.43019 14.3102 4.29658C14.3102 4.02612 14.0901 3.80606 13.8197 3.80606C13.5491 3.80606 13.329 4.02612 13.329 4.29658C13.329 4.57047 13.107 4.79245 12.8331 4.79245C12.5592 4.79245 12.3372 4.57047 12.3372 4.29658C12.3372 3.47928 13.0022 2.81432 13.8196 2.81432C14.637 2.81427 15.3019 3.47736 15.3019 4.29471ZM13.708 6.84887C13.4342 6.84887 13.2231 7.07085 13.2231 7.34474V7.34854C13.2231 7.62242 13.4342 7.84253 13.708 7.84253C13.9819 7.84253 14.2039 7.61862 14.2039 7.34474C14.2039 7.07085 13.9819 6.84887 13.708 6.84887ZM3.71306 10.303C3.43917 10.303 3.21719 10.525 3.21719 10.7989C3.21719 11.0728 3.43917 11.2948 3.71306 11.2948H3.75438C4.02826 11.2948 4.25025 11.0728 4.25025 10.7989C4.25025 10.525 4.02826 10.303 3.75438 10.303H3.71306ZM5.43642 10.303C5.16253 10.303 4.94055 10.525 4.94055 10.7989C4.94055 11.0728 5.16253 11.2948 5.43642 11.2948H5.47769C5.75157 11.2948 5.97355 11.0728 5.97355 10.7989C5.97355 10.525 5.75157 10.303 5.47769 10.303H5.43642ZM20 2.38298V7.9643C20 9.28578 18.9404 10.3581 17.6189 10.3581H11.1882C11.0625 10.3581 10.959 10.3574 10.8723 10.3556C10.7816 10.3537 10.6794 10.353 10.6396 10.3574C10.5981 10.385 10.4964 10.4781 10.3984 10.5684C10.3596 10.6042 10.3156 10.6435 10.2682 10.6868L8.44876 12.3451C8.30364 12.4775 8.08893 12.5118 7.9092 12.4326C7.72948 12.3533 7.60331 12.1753 7.60331 11.9789V6.72176H2.40882C1.63405 6.72176 0.991736 7.35664 0.991736 8.1313V13.7126C0.991736 14.4873 1.6341 15.0964 2.40882 15.0964H9.59196C9.71565 15.0964 9.83135 15.1532 9.9227 15.2366L11.405 16.6033V11.8904C11.405 11.6165 11.6269 11.3945 11.9008 11.3945C12.1747 11.3945 12.3967 11.6165 12.3967 11.8904V17.7272C12.3967 17.9236 12.2843 18.0989 12.1045 18.1782C12.0402 18.2066 11.9756 18.2177 11.908 18.2177C11.7866 18.2177 11.6668 18.1679 11.5737 18.0828L9.39972 16.0881H2.40882C1.08727 16.0881 0 15.0341 0 13.7126V8.1313C0 6.80981 1.08727 5.73003 2.40882 5.73003H7.60331V2.38298C7.60331 1.06143 8.6989 0 10.0204 0H17.619C18.9404 0 20 1.06143 20 2.38298ZM19.0083 2.38298C19.0083 1.60826 18.3936 0.991736 17.6189 0.991736H10.0204C9.24573 0.991736 8.59504 1.60826 8.59504 2.38298V6.23052V10.855L9.59201 9.95399C9.63818 9.91185 9.68992 9.87328 9.72766 9.83846C10.1829 9.41895 10.2994 9.3519 10.8932 9.36413C10.9742 9.36584 11.0707 9.36645 11.1882 9.36645H17.6189C18.3936 9.36645 19.0083 8.73901 19.0083 7.96435V2.38298Z" fill="#1405F8"/>
</svg>
