<svg width="51" height="48" viewBox="0 0 51 48" fill="none" xmlns="http://www.w3.org/2000/svg">
<path d="M28.3908 36.1596C29.3068 36.1596 30.0496 35.4167 30.0496 34.5008C30.0496 33.5846 29.3068 32.842 28.3908 32.842H26.9465V1.65881C26.9465 0.74294 26.2039 0 25.288 0H4.76175C3.84571 0 3.10294 0.74294 3.10294 1.65881V32.8422H1.65881C0.742771 32.8422 0 33.5848 0 34.501C0 35.4168 0.742771 36.1598 1.65881 36.1598H28.3908V36.1596ZM6.42022 32.8422V3.31745H23.6292V32.842H6.42022V32.8422Z" fill="#5E77FF"/>
<path d="M12.9721 4.35419H8.86692C8.08831 4.35419 7.45694 4.98539 7.45694 5.764V9.86919C7.45694 10.6476 8.08814 11.279 8.86692 11.279H12.9721C13.7507 11.279 14.3821 10.6478 14.3821 9.86919V5.764C14.3821 4.98556 13.7509 4.35419 12.9721 4.35419ZM11.5621 8.45937H10.2767V7.17381H11.5621V8.45937Z" fill="#5E77FF"/>
<path d="M21.1827 4.35419H17.0775C16.2989 4.35419 15.6677 4.98539 15.6677 5.764V9.86919C15.6677 10.6476 16.2987 11.279 17.0775 11.279H21.1827C21.9613 11.279 22.5926 10.6478 22.5926 9.86919V5.764C22.5925 4.98556 21.9613 4.35419 21.1827 4.35419ZM19.7729 8.45937H18.4873V7.17381H19.7729V8.45937Z" fill="#5E77FF"/>
<path d="M12.9721 12.5647H8.86692C8.08831 12.5647 7.45694 13.1959 7.45694 13.9745V18.0797C7.45694 18.8585 8.08814 19.4898 8.86692 19.4898H12.9721C13.7507 19.4898 14.3821 18.8586 14.3821 18.0797V13.9743C14.3821 13.1959 13.7509 12.5647 12.9721 12.5647ZM11.5621 16.6699H10.2767V15.3845H11.5621V16.6699Z" fill="#5E77FF"/>
<path d="M21.1827 12.5647H17.0775C16.2989 12.5647 15.6677 13.1959 15.6677 13.9745V18.0797C15.6677 18.8585 16.2987 19.4898 17.0775 19.4898H21.1827C21.9613 19.4898 22.5926 18.8586 22.5926 18.0797V13.9743C22.5925 13.1959 21.9613 12.5647 21.1827 12.5647ZM19.7729 16.6699H18.4873V15.3845H19.7729V16.6699Z" fill="#5E77FF"/>
<path d="M12.9721 20.7751H8.86692C8.08831 20.7751 7.45694 21.4063 7.45694 22.1849V26.2901C7.45694 27.0689 8.08814 27.7002 8.86692 27.7002H12.9721C13.7507 27.7002 14.3821 27.069 14.3821 26.2901V22.1849C14.3821 21.4063 13.7509 20.7751 12.9721 20.7751ZM11.5621 24.8803H10.2767V23.5949H11.5621V24.8803Z" fill="#5E77FF"/>
<path d="M21.1827 20.7751H17.0775C16.2989 20.7751 15.6677 21.4063 15.6677 22.1849V26.2901C15.6677 27.0689 16.2987 27.7002 17.0775 27.7002H21.1827C21.9613 27.7002 22.5926 27.069 22.5926 26.2901V22.1849C22.5925 21.4063 21.9613 20.7751 21.1827 20.7751ZM19.7729 24.8803H18.4873V23.5949H19.7729V24.8803Z" fill="#5E77FF"/>
<path d="M49.6505 35.6187L43.4949 30.1321C42.866 29.5712 41.9165 29.5716 41.2877 30.1318L35.1315 35.6184C34.7784 35.9333 34.5764 36.384 34.5764 36.8568V46.3412C34.5764 47.2571 35.319 48 36.2352 48H48.547C49.4631 48 50.2055 47.2571 50.2055 46.3412V36.8568C50.2055 36.3841 50.0037 35.9335 49.6505 35.6187ZM46.8882 44.6827H37.8938V37.6005L42.3912 33.5924L46.8882 37.6005V44.6827Z" fill="#5E77FF"/>
<path d="M38.7877 26.4543C38.2371 27.005 38.2371 27.8977 38.7877 28.4484C39.3385 28.9988 40.231 28.9988 40.7817 28.4484C41.669 27.5606 43.113 27.5606 44.0003 28.4484C44.2757 28.7235 44.6364 28.8614 44.9973 28.8614C45.3582 28.8614 45.7191 28.7235 45.9943 28.4484C46.5449 27.8977 46.5449 27.005 45.9943 26.4543C44.0074 24.4677 40.7746 24.4677 38.7877 26.4543Z" fill="#5E77FF"/>
<path d="M35.9206 23.2483C35.3701 23.7987 35.3701 24.6915 35.9208 25.2422C36.4712 25.7926 37.3642 25.7926 37.9146 25.2419C39.1104 24.0464 40.7003 23.3876 42.3912 23.3876C44.0821 23.3876 45.672 24.0462 46.8674 25.2419C47.1428 25.5172 47.5037 25.6548 47.8645 25.6548C48.2252 25.6548 48.5861 25.5172 48.8611 25.2422C49.4119 24.6918 49.4119 23.7987 48.8613 23.2483C47.1332 21.5195 44.8354 20.5678 42.391 20.5678C39.9469 20.5677 37.6491 21.5195 35.9206 23.2483Z" fill="#5E77FF"/>
<path d="M30.7618 7.2154H40.0503V16.5041C40.0503 17.42 40.7932 18.1629 41.7091 18.1629C42.6251 18.1629 43.3679 17.42 43.3679 16.5041V5.55676C43.3679 4.64089 42.6251 3.89795 41.7091 3.89795H30.7618C29.8457 3.89795 29.103 4.64089 29.103 5.55676C29.1031 6.47263 29.8459 7.2154 30.7618 7.2154Z" fill="#5E77FF"/>
<path d="M30.7616 43.3745H21.4731V39.5599C21.4731 38.6437 20.7303 37.9011 19.8143 37.9011C18.8982 37.9011 18.1555 38.6437 18.1555 39.5599V45.0333C18.1555 45.9495 18.8982 46.6921 19.8143 46.6921H30.7616C31.6776 46.6921 32.4204 45.9495 32.4204 45.0333C32.4202 44.1175 31.6776 43.3745 30.7616 43.3745Z" fill="#5E77FF"/>
</svg>
