<svg width="15" height="16" viewBox="0 0 15 16" fill="none" xmlns="http://www.w3.org/2000/svg">
<path d="M12.2719 10.8159C10.5472 10.1559 9.51573 9.4826 9.51573 9.4826L8.18903 13.6816L8.00661 14.2521L7.41291 12.5672C8.77941 10.66 7.3101 10.5705 7.05471 10.5672H7.05139H7.04807H7.04476H7.04144C6.78605 10.5705 5.31673 10.66 6.68323 12.5672L6.0829 14.2554L5.90048 13.6849L4.57378 9.48592C4.57378 9.48592 3.54228 10.1592 1.81757 10.8193C-0.0829184 11.5091 0.0364841 13.0713 0 16H7.03812H7.05471H14.0928C14.053 13.0713 14.1724 11.5058 12.2719 10.8159Z" fill="black"/>
<path d="M2.64346 5.47267L3.26369 5.46935C3.36319 5.96354 3.55888 6.42125 3.83085 6.82258L3.39304 7.26039C3.23715 7.41628 3.23715 7.67167 3.39636 7.82755L3.87397 8.30185C4.02985 8.45773 4.28524 8.45773 4.44113 8.29853L4.87894 7.86072C5.28358 8.12938 5.74129 8.32175 6.23549 8.41793L6.2388 9.03816C6.2388 9.26038 6.42122 9.43949 6.64013 9.43617L7.31343 9.43285C7.53565 9.43285 7.71475 9.25043 7.71144 9.03153L7.70812 8.4113C8.20231 8.3118 8.66002 8.11611 9.06135 7.84414L9.49916 8.28195C9.65505 8.43783 9.91044 8.43783 10.0663 8.27863L10.5406 7.80102C10.6965 7.64513 10.6965 7.38974 10.5373 7.23386L10.0995 6.79936C10.3681 6.39472 10.5605 5.93701 10.6567 5.44282L11.2769 5.4395C11.4992 5.4395 11.6783 5.25708 11.6749 5.03817L11.6716 4.36488C11.6716 4.14265 11.4892 3.96355 11.2703 3.96687L10.6501 3.97018C10.5506 3.47599 10.3549 3.01828 10.0829 2.61695L10.5207 2.17914C10.6766 2.02326 10.6766 1.76787 10.5174 1.61198L10.0398 1.13437C9.8839 0.978484 9.62851 0.978484 9.47263 1.13769L9.03482 1.5755C8.63017 1.30684 8.17246 1.11447 7.67827 1.01828L7.67495 0.398054C7.67495 0.175833 7.49253 -0.00327141 7.27363 4.53335e-05L6.60033 0.00336207C6.37811 0.00336207 6.199 0.185783 6.20232 0.404688L6.20564 1.02492C5.71144 1.12442 5.25373 1.32011 4.85241 1.59208L4.4146 1.15427C4.25871 0.998384 4.00332 0.998384 3.84743 1.15759L3.37314 1.6352C3.21725 1.79109 3.21725 2.04647 3.37646 2.20236L3.81427 2.64017C3.54561 3.04481 3.35324 3.50252 3.25705 3.99672L2.63682 4.00003C2.4146 4.00003 2.2355 4.18246 2.23881 4.40136L2.24213 5.07466C2.24213 5.29356 2.42124 5.47267 2.64346 5.47267ZM6.94859 2.55062C8.14593 2.5473 9.12105 3.51247 9.12437 4.70982C9.12769 5.90716 8.16251 6.88228 6.96517 6.8856C5.76783 6.88892 4.7927 5.92374 4.78939 4.7264C4.78275 3.52906 5.75124 2.55725 6.94859 2.55062Z" fill="black"/>
</svg>
