<svg width="21" height="21" viewBox="0 0 21 21" fill="none" xmlns="http://www.w3.org/2000/svg">
<g clip-path="url(#clip0)">
<path d="M1.54614 10.4796C1.46668 10.4936 1.38848 10.5 1.31166 10.5C0.688694 10.5 0.136278 10.0539 0.0209389 9.42083C-0.107341 8.70703 0.367043 8.02378 1.08098 7.89563C4.2942 7.31612 7.74576 5.67813 11.3488 3.04693L9.83382 1.20886L17.0626 0.000152588L14.4954 6.86511L13.0202 5.07581C9.00826 8.03148 5.24522 9.81312 1.54614 10.4796ZM3.93788 14.4375H2.62535C1.90125 14.4375 1.31282 15.0244 1.31282 15.7497V19.6873C1.31282 20.4128 1.90121 20.9998 2.62535 20.9998H3.93788C4.66333 20.9998 5.25028 20.4128 5.25028 19.6873V15.7497C5.25028 15.0244 4.66333 14.4375 3.93788 14.4375ZM14.4376 9.18756H13.1251C12.3998 9.18756 11.8128 9.77451 11.8128 10.5V19.6873C11.8128 20.4128 12.3998 20.9998 13.1251 20.9998H14.4376C15.1632 20.9998 15.7501 20.4128 15.7501 19.6873V10.5C15.7501 9.77455 15.1631 9.18756 14.4376 9.18756ZM19.6876 6.56254H18.3749C17.6496 6.56254 17.0626 7.14962 17.0626 7.87507V19.6873C17.0626 20.4129 17.6496 20.9998 18.3749 20.9998H19.6876C20.413 20.9998 20.9999 20.4129 20.9999 19.6873V7.87503C21 7.14962 20.413 6.56254 19.6876 6.56254ZM9.18774 11.8124H7.8753C7.15119 11.8124 6.56277 12.3996 6.56277 13.1249V19.6873C6.56277 20.4129 7.15115 20.9998 7.8753 20.9998H9.18774C9.91328 20.9998 10.5002 20.4129 10.5002 19.6873V13.1249C10.5002 12.3996 9.91328 11.8124 9.18774 11.8124Z" fill="#777777"/>
</g>
<defs>
<clipPath id="clip0">
<rect width="21" height="21" fill="white"/>
</clipPath>
</defs>
</svg>
