<svg width="36" height="16" viewBox="0 0 36 16" fill="none" xmlns="http://www.w3.org/2000/svg">
<path d="M18.5075 0H2.49252C1.11815 0 0 1.07717 0 2.40115V13.5988C0 14.9228 1.11815 16 2.49252 16H18.5075C19.8819 16 21 14.9228 21 13.5988V2.40115C21 1.07717 19.8819 0 18.5075 0ZM18.5075 13.8802H2.49252C2.2905 13.8802 2.11332 13.7487 2.11332 13.5988V3.88187L9.35648 10.0161C9.50498 10.1419 9.69381 10.2112 9.88825 10.2112L11.1115 10.2112C11.3059 10.2112 11.4948 10.1419 11.6434 10.0161L18.8868 3.88165V13.599C18.8867 13.7487 18.7095 13.8802 18.5075 13.8802ZM10.5 8.10632L3.45515 2.11983H17.5449L10.5 8.10632Z" fill="white"/>
<rect x="23" y="4" width="8" height="1" fill="white"/>
<rect x="23" y="12" width="8" height="1" fill="white"/>
<rect x="23" y="8" width="13" height="1" fill="white"/>
</svg>
