<svg width="21" height="17" viewBox="0 0 21 17" fill="none" xmlns="http://www.w3.org/2000/svg">
<path d="M5.67578 16.9826H9.38522V13.1895H11.6149V16.9826H15.3243V0H5.67578V16.9826ZM11.1769 2.00141H13.4065V4.23108H11.1769V2.00141ZM11.1769 5.58482H13.4065V7.81449H11.1769V5.58482ZM11.1769 9.16814H13.4065V11.3978H11.1769V9.16814ZM7.59353 2.00141H9.82316V4.23108H7.59353V2.00141ZM7.59353 5.58482H9.82316V7.81449H7.59353V5.58482ZM7.59353 9.16814H9.82316V11.3978H7.59353V9.16814Z" fill="#777777"/>
<path d="M16.1904 1.5213V13.5293H17.6229V16.9826H21V1.5213H16.1904ZM19.2541 11.8982H17.2241V9.86827H19.2541L19.2541 11.8982ZM19.2541 8.63575H17.2241V6.60588H19.2541L19.2541 8.63575ZM19.2541 5.37335H17.2241V3.34348H19.2541L19.2541 5.37335Z" fill="#777777"/>
<path d="M0 16.9826H3.37715V13.5293H4.80961V1.5213H0V16.9826ZM1.74598 3.34348H3.77589V5.37335H1.74598V3.34348ZM1.74598 6.60588H3.77589V8.63575H1.74598V6.60588ZM1.74598 9.86818H3.77589V11.8981H1.74598V9.86818Z" fill="#777777"/>
</svg>
