<svg width="21" height="21" viewBox="0 0 21 21" fill="none" xmlns="http://www.w3.org/2000/svg">
<path d="M10.5 0C4.70401 0 0 4.70401 0 10.5C0 16.296 4.70401 21 10.5 21C16.296 21 21 16.296 21 10.5C21 4.70401 16.296 0 10.5 0ZM10.92 3.86401L13.8601 1.42803C15.5401 2.10003 17.0521 3.19201 18.144 4.62003L16.884 7.89602L13.692 9.24002L10.92 7.05601V3.86401ZM7.13999 1.42803L10.08 3.86401V7.05601L7.30804 9.32404L4.11603 7.98004L2.85601 4.62003C3.94803 3.19201 5.37601 2.09998 7.13999 1.42803ZM2.60403 16.044C1.59603 14.616 0.924024 12.852 0.840002 10.92L4.03201 8.82L6.97204 10.08L8.06406 13.692L5.96408 15.8761L2.60403 16.044ZM13.272 19.7401C12.432 19.992 11.508 20.16 10.5 20.16C9.49195 20.16 8.652 19.992 7.72802 19.7401L6.80399 16.2121L8.73597 14.2801H12.18L14.196 16.2961L13.272 19.7401ZM14.8681 15.8761L12.852 13.7761L13.944 10.0801L16.8841 8.82004L20.16 10.92C20.0761 12.852 19.404 14.616 18.3961 16.044L14.8681 15.8761Z" fill="#777777"/>
</svg>
