<svg width="15" height="21" viewBox="0 0 15 21" fill="none" xmlns="http://www.w3.org/2000/svg">
<path d="M13.4881 15.0293C13.3434 14.676 12.995 14.4497 12.6626 14.3106L10.4153 13.2545L9.33557 12.3252L7.60071 14.0862H7.59939L8.34812 19.1942C8.35081 19.2117 8.34635 19.2297 8.33616 19.244L7.55333 20.3373C7.54089 20.3549 7.52104 20.3651 7.49986 20.3651C7.47868 20.3651 7.45883 20.3548 7.44639 20.3373L6.66365 19.244C6.65332 19.2297 6.649 19.2116 6.6516 19.1942L7.40024 14.0861H7.3991L5.66433 12.3252L4.58463 13.2545L2.33721 14.3106C2.0047 14.4497 1.67796 14.661 1.51172 15.0293C1.51172 15.0293 -0.931136 20.9649 0.39386 20.9649H14.6063C15.931 20.965 13.4881 15.0293 13.4881 15.0293Z" fill="#777777"/>
<path d="M13.6443 6.89108C13.6781 6.88735 13.7086 6.87087 13.7295 6.84417C13.7508 6.81751 13.7603 6.78316 13.7566 6.74898C13.7314 6.52975 13.7062 6.31097 13.6812 6.09173L13.6289 5.63296C13.6209 5.56448 13.5608 5.51468 13.4932 5.52085L13.396 5.52098L13.3979 3.98099L13.4488 3.96213L13.6184 3.89963C13.762 3.84659 13.8577 3.70759 13.8577 3.55185C13.8577 3.39606 13.762 3.25702 13.6184 3.20393L7.62311 0.992694C7.54339 0.963292 7.45622 0.963292 7.37667 0.992694L1.3813 3.20393C1.23774 3.25702 1.14209 3.39606 1.14209 3.55185C1.14209 3.70759 1.23774 3.84659 1.3813 3.89963L3.59761 4.71708C3.44117 5.22115 3.36996 5.7983 3.37636 6.44087C3.41536 10.1061 5.50011 12.2918 7.42913 12.2918C9.3356 12.2918 11.4429 10.1061 11.4818 6.44087C11.4882 5.81806 11.4209 5.25708 11.2745 4.76418L12.8861 4.16983L12.8895 5.52157L12.7921 5.52152C12.7245 5.51549 12.6644 5.56511 12.6567 5.63413L12.5306 6.75024C12.5268 6.78424 12.5367 6.81823 12.5578 6.84498C12.5789 6.87159 12.6096 6.88865 12.643 6.89149L13.6443 6.89108ZM7.42939 11.4017C5.74638 11.4017 4.58506 9.38954 4.35079 7.37809C4.13417 5.51787 6.77014 5.43129 6.92323 6.58428C6.97039 6.93872 6.57161 7.31843 6.61683 7.46481C6.83989 8.18743 10.5333 5.1062 10.508 7.37719C10.4903 8.98062 9.03295 11.4017 7.42939 11.4017Z" fill="#777777"/>
</svg>
