<svg width="21" height="23" viewBox="0 0 21 23" fill="none" xmlns="http://www.w3.org/2000/svg">
<path d="M1.31896 11.5254C1.17734 11.667 1.09595 11.8625 1.09595 12.0635C1.09595 12.2643 1.17742 12.4599 1.31896 12.6015C1.4605 12.7431 1.65695 12.8245 1.85702 12.8245C2.05724 12.8245 2.25353 12.743 2.39507 12.6015C2.53738 12.4599 2.61816 12.2636 2.61816 12.0635C2.61816 11.8633 2.53738 11.667 2.39507 11.5254C2.25353 11.3837 2.05793 11.3024 1.85702 11.3024C1.65687 11.3024 1.4605 11.3837 1.31896 11.5254Z" fill="#777777"/>
<path d="M17.6446 15.2928C17.503 15.4344 17.4216 15.6308 17.4216 15.831C17.4216 16.0311 17.503 16.2275 17.6446 16.369C17.787 16.5105 17.9826 16.592 18.1827 16.592C18.3829 16.592 18.5792 16.5105 18.7208 16.369C18.8631 16.2275 18.9438 16.031 18.9438 15.831C18.9438 15.6307 18.8631 15.4344 18.7208 15.2928C18.5792 15.1512 18.3836 15.0698 18.1827 15.0698C17.9826 15.0698 17.7862 15.1512 17.6446 15.2928Z" fill="#777777"/>
<path d="M10.6476 4.03382C10.8485 4.03382 11.0441 3.95235 11.1857 3.81081C11.328 3.66935 11.4087 3.47298 11.4087 3.27283C11.4087 3.07261 11.3279 2.87632 11.1857 2.7347C11.0441 2.59316 10.8485 2.51169 10.6476 2.51169C10.4474 2.51169 10.2511 2.59316 10.1095 2.7347C9.96787 2.87632 9.88647 3.07269 9.88647 3.27283C9.88647 3.47305 9.96787 3.66935 10.1095 3.81081C10.2511 3.95235 10.4475 4.03382 10.6476 4.03382Z" fill="#777777"/>
<path d="M19.4385 10.313C19.6394 10.313 19.835 10.2315 19.9765 10.09C20.1189 9.94841 20.1996 9.75204 20.1996 9.5519C20.1996 9.35176 20.1189 9.15539 19.9765 9.01385C19.835 8.87223 19.6386 8.79083 19.4385 8.79083C19.2383 8.79083 19.042 8.87223 18.9004 9.01385C18.7588 9.15539 18.6775 9.35183 18.6775 9.5519C18.6775 9.75212 18.7589 9.94841 18.9004 10.09C19.042 10.2315 19.2383 10.313 19.4385 10.313Z" fill="#777777"/>
<path d="M4.36849 1.52221C4.5694 1.52221 4.765 1.44074 4.90654 1.2992C5.04893 1.15766 5.12956 0.961288 5.12956 0.761222C5.12956 0.561002 5.04885 0.364709 4.90654 0.223092C4.76508 0.0813973 4.56948 0 4.36849 0C4.16835 0 3.97198 0.0813972 3.83044 0.222938C3.68882 0.364555 3.60742 0.560925 3.60742 0.761068C3.60742 0.961211 3.68882 1.1575 3.83044 1.29904C3.97198 1.44074 4.16842 1.52221 4.36849 1.52221Z" fill="#777777"/>
<path d="M8.61305 10.2146C8.28531 9.95141 7.80624 10.0034 7.54295 10.331C7.27958 10.6586 7.33164 11.1377 7.65923 11.4011C11.8176 14.7441 14.9352 22.3209 14.9662 22.397C15.0864 22.6924 15.371 22.8714 15.6714 22.8714C15.7669 22.8714 15.8641 22.8533 15.958 22.8151C16.3473 22.6566 16.5345 22.2127 16.3762 21.8234C16.2437 21.4977 13.081 13.8065 8.61305 10.2146Z" fill="#777777"/>
<path d="M3.27552 8.98758L4.57072 11.2196C4.70741 11.4554 4.95891 11.5988 5.22883 11.5988C5.24592 11.5988 5.26302 11.5981 5.28019 11.5971C5.5692 11.5777 5.82217 11.3958 5.9326 11.1279L6.91661 8.74231L9.43954 8.20056C9.72285 8.13972 9.94694 7.92341 10.0178 7.64256C10.0886 7.36164 9.99376 7.06485 9.77329 6.8771L7.80843 5.20357L8.0728 2.63705C8.10245 2.34897 7.96591 2.06889 7.72072 1.91472C7.47537 1.76063 7.16395 1.75893 6.91714 1.91071L4.7188 3.26197L2.3589 2.21721C2.09392 2.10008 1.78542 2.14336 1.56302 2.32894C1.34063 2.51461 1.2429 2.81032 1.31098 3.09194L1.91718 5.60062L0.194441 7.52189C0.000997618 7.73759 -0.0531389 8.04431 0.0547491 8.31322C0.162483 8.58206 0.413605 8.76649 0.702462 8.78882L3.27552 8.98758ZM3.31765 6.31895C3.48491 6.13244 3.54967 5.87562 3.49084 5.63212L3.15285 4.23342L4.46845 4.81591C4.6977 4.91725 4.96184 4.89954 5.17507 4.76832L6.40065 4.01495L6.25334 5.4456C6.22769 5.69472 6.32619 5.94061 6.51694 6.10294L7.61253 7.03612L6.20575 7.33807C5.96086 7.39074 5.75756 7.56055 5.66199 7.79203L5.11339 9.12203L4.39129 7.87766C4.26561 7.66104 4.04137 7.52004 3.79163 7.50071L2.35736 7.38997L3.31765 6.31895Z" fill="#777777"/>
<path d="M6.70918 14.3653L5.29909 14.0471L4.76189 12.7057C4.65423 12.4368 4.40311 12.2524 4.11425 12.23C3.82524 12.2071 3.54894 12.3509 3.40093 12.6L2.66289 13.8425L1.22076 13.9391C0.931673 13.9584 0.678703 14.1402 0.568042 14.4079C0.457613 14.6758 0.508592 14.9831 0.699726 15.2007L1.65354 16.2867L1.29969 17.6879C1.22877 17.9688 1.32349 18.2656 1.54396 18.4535C1.76444 18.6413 2.07254 18.6879 2.33861 18.5733L3.66599 18.0018L4.88964 18.7713C5.01332 18.8492 5.15409 18.8882 5.29478 18.8882C5.43286 18.8882 5.57101 18.8506 5.69322 18.7755C5.94003 18.6239 6.07941 18.3453 6.05262 18.0568L5.91924 16.6177L7.02907 15.6921C7.25155 15.5065 7.34935 15.2107 7.28151 14.9292C7.21358 14.6476 6.9918 14.429 6.70918 14.3653ZM4.63706 15.7051C4.44469 15.8656 4.34358 16.1104 4.36676 16.3598L4.39464 16.6618L4.13782 16.5003C4.01476 16.4228 3.87406 16.3834 3.7326 16.3834C3.63057 16.3834 3.52815 16.404 3.43173 16.4456L3.15335 16.5654L3.22751 16.2715C3.28896 16.0287 3.22674 15.7711 3.06148 15.583L2.86118 15.3549L3.16382 15.3346C3.41371 15.3178 3.6395 15.1792 3.76741 14.9639L3.92219 14.7032L4.03493 14.9846C4.12804 15.217 4.32964 15.3888 4.57391 15.4439L4.87024 15.5108L4.63706 15.7051Z" fill="#777777"/>
<path d="M20.734 6.14877L19.1508 4.79274L19.3639 2.71206C19.3935 2.42367 19.2565 2.14344 19.0108 1.9895C18.7651 1.83556 18.4533 1.83464 18.2067 1.98711L16.4387 3.0797L14.5408 2.23523C14.2761 2.11718 13.9674 2.16007 13.7447 2.34543C13.5218 2.53079 13.4237 2.82657 13.4914 3.10835L13.9801 5.14228L12.5915 6.69914C12.3989 6.91507 12.3455 7.22141 12.4535 7.48978C12.5614 7.75815 12.8121 7.94213 13.1006 7.96446L15.1707 8.12533L16.2134 9.93224C16.3499 10.1688 16.6019 10.3129 16.8725 10.3129C16.8894 10.3129 16.9064 10.3123 16.9236 10.3112C17.2132 10.2917 17.4667 10.1093 17.5768 9.84068L18.3692 7.90894L20.3994 7.47084C20.6821 7.40977 20.9058 7.19384 20.9767 6.91353C21.0477 6.63315 20.9536 6.33682 20.734 6.14877ZM17.6566 6.50547C17.4114 6.55845 17.2081 6.72864 17.1129 6.96066L16.7569 7.82862L16.2886 7.01734C16.1632 6.79995 15.9386 6.65833 15.6883 6.63892L14.7501 6.566L15.3811 5.85829C15.5472 5.67217 15.6114 5.4165 15.5532 5.17393L15.3319 4.25345L16.187 4.63395C16.417 4.73621 16.6827 4.71827 16.8966 4.58605L17.692 4.09443L17.5957 5.034C17.5703 5.28228 17.6682 5.52716 17.8578 5.68957L18.5781 6.30656L17.6566 6.50547Z" fill="#777777"/>
<path d="M15.3429 12.9663C14.8881 10.9406 15.149 9.75728 15.1549 9.73133C15.2536 9.32526 15.006 8.91497 14.5999 8.81347C14.1921 8.71136 13.779 8.95948 13.677 9.36716C13.6219 9.58763 12.4016 14.8545 18.8539 22.5973C19.0045 22.778 19.221 22.8712 19.439 22.8712C19.6108 22.8712 19.7836 22.8133 19.9259 22.6948C20.2487 22.4257 20.2924 21.9457 20.0234 21.6228C16.927 17.9073 15.7691 14.8646 15.3429 12.9663Z" fill="#777777"/>
<path d="M10.5071 17.6009C9.46691 16.7341 8.42083 16.3795 8.37686 16.3647C7.97881 16.2322 7.55011 16.4466 7.41619 16.8441C7.2822 17.2415 7.49612 17.6727 7.89302 17.8081C8.02571 17.8533 11.1424 18.9522 11.1424 22.1101C11.1424 22.5305 11.4833 22.8712 11.9036 22.8712C12.3239 22.8712 12.6647 22.5305 12.6647 22.1101C12.6648 20.3364 11.9186 18.7772 10.5071 17.6009Z" fill="#777777"/>
</svg>
