<svg width="56" height="56" viewBox="0 0 56 56" fill="none" xmlns="http://www.w3.org/2000/svg">
<path d="M43.23 14.9241C43.7814 14.9241 44.3327 14.7142 44.7527 14.293L47.7994 11.2463C48.6406 10.4051 48.6406 9.04176 47.7994 8.20079C46.9582 7.35962 45.5939 7.35962 44.7539 8.20079L41.7072 11.2475C40.866 12.0886 40.866 13.452 41.7072 14.293C42.1272 14.714 42.6785 14.9241 43.23 14.9241ZM8.61532 28C8.61532 26.811 7.65048 25.8462 6.46149 25.8462H2.15383C0.964845 25.8462 0 26.8112 0 28C0 29.189 0.964845 30.1538 2.15383 30.1538H6.46149C7.65048 30.1538 8.61532 29.189 8.61532 28ZM11.2475 41.7072L8.20079 44.7539C7.35962 45.5951 7.35962 46.9584 8.20079 47.7994C8.62079 48.2206 9.17227 48.4305 9.72355 48.4305C10.2748 48.4305 10.8263 48.2204 11.2463 47.7994L14.293 44.7527C15.1342 43.9115 15.1342 42.5482 14.293 41.7072C13.453 40.866 12.0875 40.866 11.2475 41.7072ZM11.2475 14.293C11.6675 14.7142 12.219 14.9241 12.7702 14.9241C13.3217 14.9241 13.873 14.7142 14.293 14.293C15.1342 13.4518 15.1342 12.0885 14.293 11.2475L11.2463 8.20079C10.4063 7.35962 9.04078 7.35962 8.20079 8.20079C7.35962 9.04196 7.35962 10.4053 8.20079 11.2463L11.2475 14.293ZM28 8.61532C29.189 8.61532 30.1538 7.65048 30.1538 6.46149V2.15383C30.1538 0.964845 29.189 0 28 0C26.811 0 25.8462 0.964845 25.8462 2.15383V6.46149C25.8462 7.65048 26.8112 8.61532 28 8.61532ZM53.8462 25.8462H49.5385C48.3495 25.8462 47.3847 26.811 47.3847 28C47.3847 29.189 48.3495 30.1538 49.5385 30.1538H53.8462C55.0352 30.1538 56 29.189 56 28C56 26.8112 55.0352 25.8462 53.8462 25.8462ZM44.7527 41.7072C43.9127 40.866 42.5472 40.866 41.7072 41.7072C40.866 42.5484 40.866 43.9117 41.7072 44.7527L44.7539 47.7994C45.1739 48.2206 45.7254 48.4305 46.2766 48.4305C46.8281 48.4305 47.3784 48.2204 47.7994 47.7994C48.6406 46.9582 48.6406 45.5949 47.7994 44.7539L44.7527 41.7072ZM28 47.3847C26.811 47.3847 25.8462 48.3495 25.8462 49.5385V53.8462C25.8462 55.0352 26.811 56 28 56C29.189 56 30.1538 55.0352 30.1538 53.8462V49.5385C30.1538 48.3497 29.189 47.3847 28 47.3847ZM28 12.9232C19.6861 12.9232 12.923 19.6863 12.923 28.0002C12.923 36.3141 19.6861 43.0772 28 43.0772C36.3139 43.0772 43.077 36.3141 43.077 28.0002C43.077 19.6863 36.3139 12.9232 28 12.9232ZM28 38.7694C22.0619 38.7694 17.2308 33.9383 17.2308 28.0002C17.2308 22.0621 22.0619 17.231 28 17.231C33.9381 17.231 38.7692 22.0621 38.7692 28.0002C38.7692 33.9383 33.9383 38.7694 28 38.7694Z" fill="#5E77FF"/>
</svg>
