<svg width="130" height="130" viewBox="0 0 130 130" fill="none" xmlns="http://www.w3.org/2000/svg">
<circle cx="65" cy="65" r="65" fill="#1405F8"/>
<path d="M93.0367 37.6303H81.074V35.8276C81.074 34.8185 80.2564 34 79.2483 34C78.2402 34 77.4226 34.8185 77.4226 35.8276V37.6303H66.7567V35.8276C66.7567 34.8185 65.9391 34 64.931 34C63.923 34 63.1054 34.8185 63.1054 35.8276V37.6303H52.8928V35.8276C52.8928 34.8185 52.0752 34 51.0672 34C50.0591 34 49.2415 34.8185 49.2415 35.8276V37.6303H36.8257C35.8176 37.6303 35 38.4487 35 39.4579V80.7537C35 81.7628 35.8176 82.5813 36.8257 82.5813H48.0311C49.8266 90.2616 56.7198 96 64.931 96C73.1423 96 80.0355 90.2613 81.831 82.5813H93.0364C94.0445 82.5813 94.8621 81.7628 94.8621 80.7537V39.4579C94.8624 38.4487 94.0451 37.6303 93.0367 37.6303ZM49.2415 41.2855V42.9371C49.2415 43.9462 50.0591 44.7647 51.0672 44.7647C52.0752 44.7647 52.8928 43.9462 52.8928 42.9371V41.2855H63.1054V42.9371C63.1054 43.9462 63.923 44.7647 64.931 44.7647C65.9391 44.7647 66.7567 43.9462 66.7567 42.9371V41.2855H77.4226V42.9371C77.4226 43.9462 78.2402 44.7647 79.2483 44.7647C80.2564 44.7647 81.074 43.9462 81.074 42.9371V41.2855H91.211V48.7593H38.6514V41.2855H49.2415ZM64.931 92.3447C57.3721 92.3447 51.2223 86.1884 51.2223 78.6214C51.2223 71.0545 57.3721 64.8981 64.931 64.8981C72.4899 64.8981 78.6397 71.0542 78.6397 78.6214C78.6397 86.1887 72.4902 92.3447 64.931 92.3447ZM82.2835 78.926C82.2853 78.8243 82.2911 78.7235 82.2911 78.6214C82.2911 69.0389 74.5034 61.2429 64.931 61.2429C55.3587 61.2429 47.571 69.0389 47.571 78.6214C47.571 78.7235 47.5771 78.8243 47.5786 78.926H38.651V52.4148H91.2107V78.926H82.2835Z" fill="white"/>
<path d="M66.772 79.3147V70.1097C66.772 69.059 65.881 68.2069 64.7825 68.2069C63.6839 68.2069 62.793 69.059 62.793 70.1097V80.103C62.793 80.6076 63.0025 81.0915 63.3756 81.4486L67.9482 85.8221C68.3368 86.1935 68.8458 86.3793 69.3551 86.3793C69.8641 86.3793 70.3734 86.1935 70.762 85.8221C71.5389 85.0791 71.5389 83.8743 70.762 83.1313L66.772 79.3147Z" fill="white"/>
</svg>
