<svg width="130" height="130" viewBox="0 0 130 130" fill="none" xmlns="http://www.w3.org/2000/svg">
<circle cx="65" cy="65" r="65" fill="#1405F8"/>
<g clip-path="url(#clip0)">
<path d="M65.2008 40.5843H65.2257C66.622 40.5718 67.9435 40.0233 68.9283 39.026C69.9132 38.0286 70.4493 36.7071 70.4368 35.3108C70.4243 32.431 68.0681 30.0997 65.2008 30.0997H65.1758C63.7795 30.1122 62.4581 30.6607 61.4732 31.6581C60.4883 32.6554 59.9522 33.9769 59.9647 35.3732C59.9772 38.253 62.3334 40.5843 65.2008 40.5843ZM63.605 33.765C64.0289 33.3411 64.5899 33.1042 65.1883 33.0918H65.2008C66.435 33.0918 67.4448 34.0891 67.4448 35.3233C67.4448 35.9217 67.2204 36.4952 66.7965 36.9191C66.3726 37.3429 65.8116 37.5798 65.2132 37.5923H65.2008C63.9665 37.5923 62.9567 36.5949 62.9567 35.3607C62.9567 34.7623 63.1811 34.1888 63.605 33.765Z" fill="white"/>
<path d="M72.2071 45.6334C70.6363 43.0527 68.2427 41.6938 65.3005 41.6938C65.2881 41.6938 65.2631 41.6938 65.2507 41.6938C62.2836 41.7063 59.8899 43.1026 58.3316 45.7082C57.2096 47.5906 56.499 50.1339 56.2247 53.263C56.1499 54.0858 56.7608 54.8089 57.5836 54.8837C57.6335 54.8837 57.6709 54.8837 57.7083 54.8837C58.4812 54.8837 59.1295 54.2978 59.1918 53.5124C59.7029 47.6654 61.735 44.6983 65.2507 44.6734C65.2631 44.6734 65.2756 44.6734 65.2881 44.6734C68.7788 44.6734 70.8358 47.628 71.4092 53.45C71.484 54.2728 72.2196 54.8712 73.0424 54.7964C73.8652 54.7216 74.4636 53.9861 74.3888 53.1633C74.0771 50.0341 73.3416 47.5034 72.2071 45.6334Z" fill="white"/>
<path d="M86.8058 76.3764H86.8307C88.227 76.364 89.5485 75.8154 90.5334 74.8181C91.5182 73.8208 92.0543 72.4993 92.0543 71.103C92.0418 68.2232 89.6856 65.8919 86.8183 65.8919H86.7933C83.901 65.9043 81.5697 68.273 81.5822 71.1653C81.5822 74.0327 83.9384 76.3764 86.8058 76.3764ZM86.7933 68.8839H86.8058C88.04 68.8839 89.0498 69.8812 89.0498 71.1155C89.0498 71.7139 88.8254 72.2873 88.4015 72.7112C87.9777 73.1351 87.4167 73.372 86.8183 73.3844H86.8058C85.5716 73.3844 84.5618 72.3871 84.5618 71.1529C84.5493 69.9062 85.5591 68.8964 86.7933 68.8839Z" fill="white"/>
<path d="M95.9937 88.943C95.6945 85.8138 94.9589 83.2831 93.812 81.413C92.2412 78.8324 89.8475 77.4735 86.9054 77.4735C86.8929 77.4735 86.868 77.4735 86.8555 77.4735C83.8884 77.486 81.4948 78.8823 79.9365 81.4878C78.8144 83.3703 78.1038 85.9136 77.8296 89.0427C77.7548 89.8655 78.3656 90.5886 79.1884 90.6634C79.2383 90.6634 79.2757 90.6634 79.3131 90.6634C80.0861 90.6634 80.7343 90.0775 80.7967 89.2921C81.3078 83.4451 83.3399 80.478 86.8555 80.4531C86.868 80.4531 86.8804 80.4531 86.8929 80.4531C90.3836 80.4531 92.4406 83.4077 93.0141 89.2297C93.0889 90.0525 93.8244 90.6509 94.6473 90.5761C95.4701 90.5013 96.0685 89.7658 95.9937 88.943Z" fill="white"/>
<path d="M65.3254 58.0752C65.7243 58.0752 66.0983 57.9131 66.385 57.6389C66.6593 57.3646 66.8214 56.9781 66.8214 56.5792C66.8214 56.1802 66.6593 55.7938 66.385 55.5195C66.1108 55.2452 65.7243 55.0832 65.3254 55.0832C64.9264 55.0832 64.54 55.2452 64.2657 55.5195C63.9914 55.7938 63.8293 56.1802 63.8293 56.5792C63.8293 56.9781 63.9914 57.3646 64.2657 57.6389C64.54 57.9131 64.9264 58.0752 65.3254 58.0752Z" fill="white"/>
<path d="M65.3503 64.5455C65.3628 64.5455 65.3628 64.5455 65.3503 64.5455C66.1856 64.5455 66.8463 63.8723 66.8463 63.037C66.8463 62.2142 66.1731 61.541 65.3378 61.5534C64.515 61.5534 63.8418 62.2266 63.8543 63.0619C63.8668 63.8723 64.54 64.5455 65.3503 64.5455Z" fill="white"/>
<path d="M65.3877 68.0112C64.9888 68.0112 64.6023 68.1733 64.3281 68.4476C64.0538 68.7218 63.8917 69.1083 63.8917 69.5072C63.8917 69.9062 64.0538 70.2927 64.3281 70.5669C64.6023 70.8412 64.9888 71.0033 65.3877 71.0033C65.7867 71.0033 66.1731 70.8412 66.4474 70.5669C66.7217 70.2927 66.8838 69.9062 66.8838 69.5072C66.8838 69.1083 66.7217 68.7218 66.4474 68.4476C66.1731 68.1733 65.7867 68.0112 65.3877 68.0112Z" fill="white"/>
<path d="M71.7459 71.4022C71.0228 70.9908 70.1127 71.2401 69.7013 71.9632C69.2899 72.6863 69.5393 73.5964 70.2623 74.0078C70.4992 74.1449 70.7485 74.2072 70.9979 74.2072C71.5215 74.2072 72.0202 73.933 72.2944 73.4468C72.7183 72.7237 72.469 71.8136 71.7459 71.4022Z" fill="white"/>
<path d="M77.68 74.843C77.4057 74.5688 77.0192 74.4067 76.6203 74.4067C76.2213 74.4067 75.8349 74.5688 75.5606 74.843C75.2863 75.1173 75.1243 75.5038 75.1243 75.9027C75.1243 76.3017 75.2863 76.6881 75.5606 76.9624C75.8349 77.2367 76.2213 77.3987 76.6203 77.3987C77.0068 77.3987 77.4057 77.2367 77.68 76.9624C77.9542 76.6881 78.1163 76.3017 78.1163 75.9027C78.1163 75.5038 77.9542 75.1298 77.68 74.843Z" fill="white"/>
<path d="M59.0546 71.477C58.344 71.9009 58.1071 72.8109 58.5186 73.5216C58.7928 73.9953 59.304 74.2571 59.8151 74.2571C60.0769 74.2571 60.3262 74.1948 60.5631 74.0576C61.2737 73.6337 61.5106 72.7237 61.0992 72.0131C60.6878 71.3025 59.7777 71.0531 59.0546 71.477Z" fill="white"/>
<path d="M54.2299 74.5314C53.8434 74.5314 53.4445 74.6934 53.1702 74.9677C52.896 75.242 52.7339 75.6284 52.7339 76.0274C52.7339 76.4263 52.896 76.8128 53.1702 77.0871C53.4445 77.3613 53.831 77.5234 54.2299 77.5234C54.6288 77.5234 55.0153 77.3613 55.2896 77.0871C55.5638 76.8128 55.7259 76.4263 55.7259 76.0274C55.7259 75.6284 55.5638 75.242 55.2896 74.9677C55.0153 74.6934 54.6288 74.5314 54.2299 74.5314Z" fill="white"/>
<path d="M43.9948 76.6009H44.0197C45.416 76.5884 46.7375 76.0399 47.7224 75.0425C48.7073 74.0452 49.2433 72.7237 49.2309 71.3274C49.2184 68.4476 46.8622 66.1163 43.9948 66.1163H43.9699C42.5736 66.1288 41.2521 66.6773 40.2672 67.6747C39.2824 68.672 38.7463 69.9935 38.7588 71.3898C38.7712 74.2696 41.115 76.6009 43.9948 76.6009ZM43.9948 69.1582C45.2041 69.1582 46.189 70.1431 46.2014 71.3524C46.2014 71.9383 45.977 72.4993 45.5656 72.9107C45.1542 73.3221 44.5932 73.559 44.0073 73.559H43.9948C42.7855 73.559 41.8007 72.5741 41.7882 71.3648C41.7882 70.1555 42.7606 69.1707 43.9948 69.1582Z" fill="white"/>
<path d="M50.9886 81.6499C49.4178 79.0693 47.0242 77.7104 44.082 77.7104C44.0696 77.7104 44.0446 77.7104 44.0322 77.7104C41.0651 77.7229 38.6714 79.1192 37.1131 81.7247C35.9911 83.6072 35.2805 86.1504 35.0062 89.2796C34.9314 90.1024 35.5423 90.8255 36.3651 90.9003C36.4149 90.9003 36.4523 90.9003 36.4897 90.9003C37.2627 90.9003 37.911 90.3143 37.9733 89.5289C38.4844 83.682 40.5165 80.7149 44.0322 80.69C44.0446 80.69 44.0571 80.69 44.0696 80.69C47.5603 80.69 49.6173 83.6446 50.1907 89.4666C50.2655 90.2894 51.0011 90.8878 51.8239 90.813C52.6467 90.7382 53.2451 90.0027 53.1703 89.1799C52.8711 86.0507 52.1356 83.5199 50.9886 81.6499Z" fill="white"/>
</g>
<defs>
<clipPath id="clip0">
<rect width="61" height="61" fill="white" transform="translate(35 30)"/>
</clipPath>
</defs>
</svg>
