<svg width="20" height="20" viewBox="0 0 20 20" fill="none" xmlns="http://www.w3.org/2000/svg">
<path d="M19.3271 20C19.6987 20 20 19.702 20 19.3345V8.35272C20 7.98518 19.6987 7.68713 19.3271 7.68713H15.1556V7.25454C15.1556 7.00343 15.0127 6.77359 14.7861 6.66046L10.7149 4.62659V3.3416L13.5854 2.39514C13.8601 2.3045 14.0454 2.05016 14.0454 1.76369C14.0454 1.47716 13.8601 1.22288 13.5854 1.13224L10.2548 0.0340595C10.0497 -0.0334153 9.82409 0.000524088 9.64866 0.125575C9.47316 0.250693 9.36921 0.451568 9.36921 0.665508V4.62659L5.29807 6.66046C5.07151 6.77366 4.92855 7.00343 4.92855 7.25454V7.68713H0.672862C0.301304 7.68713 0 7.98518 0 8.35272V19.3345C0 19.702 0.301304 20 0.672862 20H19.3271ZM10.7149 2.11379V1.41345L12.1856 1.76369L10.7149 2.11379ZM1.34572 9.01831H4.92855V18.669H1.34572V9.01831ZM6.27414 7.66396L10.0421 5.78167L13.8099 7.66396V18.6689H6.27414V7.66396ZM18.6543 18.6689H15.1555V9.01831H18.6543V18.6689Z" fill="#1405F8"/>
<path d="M8.99862 8.7854H7.88844C7.51688 8.7854 7.21558 9.08338 7.21558 9.45092C7.21558 9.81853 7.51688 10.1165 7.88844 10.1165H8.99862C9.37024 10.1165 9.67148 9.81853 9.67148 9.45092C9.67148 9.08338 9.37024 8.7854 8.99862 8.7854Z" fill="#1405F8"/>
<path d="M2.69086 11.2147H3.80104C4.1726 11.2147 4.47383 10.9167 4.47383 10.5491C4.47383 10.1815 4.1726 9.88354 3.80104 9.88354H2.69086C2.3193 9.88354 2.01807 10.1815 2.01807 10.5491C2.01807 10.9167 2.3193 11.2147 2.69086 11.2147Z" fill="#1405F8"/>
<path d="M3.80104 12.0798H2.69086C2.3193 12.0798 2.01807 12.3779 2.01807 12.7454C2.01807 13.113 2.3193 13.411 2.69086 13.411H3.80104C4.1726 13.411 4.47383 13.113 4.47383 12.7454C4.47383 12.3779 4.1726 12.0798 3.80104 12.0798Z" fill="#1405F8"/>
<path d="M3.80104 14.2761H2.69086C2.3193 14.2761 2.01807 14.5741 2.01807 14.9416C2.01807 15.3093 2.3193 15.6072 2.69086 15.6072H3.80104C4.1726 15.6072 4.47383 15.3093 4.47383 14.9416C4.47383 14.5741 4.1726 14.2761 3.80104 14.2761Z" fill="#1405F8"/>
<path d="M16.4168 11.2147H17.5269C17.8985 11.2147 18.1998 10.9167 18.1998 10.5491C18.1998 10.1815 17.8985 9.88354 17.5269 9.88354H16.4168C16.0451 9.88354 15.7439 10.1815 15.7439 10.5491C15.7439 10.9167 16.0451 11.2147 16.4168 11.2147Z" fill="#1405F8"/>
<path d="M16.4168 13.411H17.5269C17.8985 13.411 18.1998 13.113 18.1998 12.7454C18.1998 12.3779 17.8985 12.0798 17.5269 12.0798H16.4168C16.0451 12.0798 15.7439 12.3779 15.7439 12.7454C15.7439 13.113 16.0451 13.411 16.4168 13.411Z" fill="#1405F8"/>
<path d="M17.5267 14.2761H16.4165C16.0449 14.2761 15.7437 14.5741 15.7437 14.9416C15.7437 15.3093 16.0449 15.6072 16.4165 15.6072H17.5267C17.8983 15.6072 18.1996 15.3093 18.1996 14.9416C18.1996 14.5741 17.8983 14.2761 17.5267 14.2761Z" fill="#1405F8"/>
<path d="M12.3292 8.7854H11.219C10.8474 8.7854 10.5461 9.08338 10.5461 9.45092C10.5461 9.81853 10.8474 10.1165 11.219 10.1165H12.3292C12.7007 10.1165 13.002 9.81853 13.002 9.45092C13.002 9.08338 12.7007 8.7854 12.3292 8.7854Z" fill="#1405F8"/>
<path d="M8.99862 10.9817H7.88844C7.51688 10.9817 7.21558 11.2797 7.21558 11.6473C7.21558 12.0148 7.51688 12.3129 7.88844 12.3129H8.99862C9.37024 12.3129 9.67148 12.0148 9.67148 11.6473C9.67148 11.2797 9.37024 10.9817 8.99862 10.9817Z" fill="#1405F8"/>
<path d="M12.3292 10.9817H11.219C10.8474 10.9817 10.5461 11.2797 10.5461 11.6473C10.5461 12.0148 10.8474 12.3129 11.219 12.3129H12.3292C12.7007 12.3129 13.002 12.0148 13.002 11.6473C13.002 11.2797 12.7007 10.9817 12.3292 10.9817Z" fill="#1405F8"/>
<path d="M8.99862 13.178H7.88844C7.51688 13.178 7.21558 13.476 7.21558 13.8435C7.21558 14.211 7.51688 14.5091 7.88844 14.5091H8.99862C9.37024 14.5091 9.67148 14.211 9.67148 13.8435C9.67148 13.476 9.37024 13.178 8.99862 13.178Z" fill="#1405F8"/>
<path d="M12.3292 13.178H11.219C10.8474 13.178 10.5461 13.476 10.5461 13.8435C10.5461 14.211 10.8474 14.5091 11.219 14.5091H12.3292C12.7007 14.5091 13.002 14.211 13.002 13.8435C13.002 13.476 12.7007 13.178 12.3292 13.178Z" fill="#1405F8"/>
</svg>
